<svg width="26" height="26" viewBox="0 0 26 26" fill="none" xmlns="http://www.w3.org/2000/svg">
<path d="M12.8754 18.0273L11.0372 16.1891L20.3354 6.89024L22.1743 8.72844L23.4 7.5028L18.4972 2.59998L17.2715 3.82562L19.1097 5.6646L9.8116 14.9635L7.97262 13.1245C7.6341 12.786 7.08576 12.786 6.74698 13.1245L4.65476 15.2167C3.2856 16.5851 2.6018 18.382 2.59998 20.1778C2.5992 21.0935 2.77938 22.004 3.13402 22.8667C3.99332 23.2203 4.9054 23.4008 5.82216 23.4C7.61642 23.3992 9.41328 22.7136 10.7835 21.3452L12.8757 19.253C13.2132 18.9152 13.215 18.3659 12.8754 18.0273Z" fill="white"/>
</svg>
