<svg width="24" height="24" viewBox="0 0 24 24" fill="none" xmlns="http://www.w3.org/2000/svg">
<path fill-rule="evenodd" clip-rule="evenodd" d="M6.72721 16.5384L5.61697 16.9411C4.84369 14.8157 3.59809 10.9637 5.38225 9.17376C6.77857 7.77504 9.17569 8.02224 10.4093 9.52224L9.49873 10.272C8.71393 9.31584 7.11745 9.10704 6.22033 10.0066C4.93057 11.2987 6.15745 14.9717 6.72721 16.5384ZM14.5575 5.1672C14.172 5.90448 13.5288 6.40896 12.5367 6.67872C12.277 5.68704 12.3922 4.87728 12.8386 4.1736C13.2864 3.46848 14.0621 2.83008 15.1234 2.19888C15.1075 3.43632 14.9439 4.42848 14.5575 5.1672ZM21.732 11.6923C21.732 8.35104 18.8904 5.75904 15.5698 6.08736C16.6551 4.34304 16.4818 1.96944 16.3925 0C14.7341 0.86016 12.7531 1.8264 11.7207 3.43248C11.4221 2.53056 11.0515 1.65408 10.6056 0.81168L9.07825 1.53936C9.97009 3.18432 10.8125 5.00688 11.1648 7.03824C7.35361 4.60512 2.26849 7.01472 2.26849 11.6933C2.27905 14.5574 3.66001 19.0565 5.25601 21.4258C6.28465 22.9526 7.58209 24 9.15457 24C10.0565 24 11.1691 23.5195 12.001 23.243C12.8496 23.5248 13.9387 24 14.856 23.9962C16.4218 23.989 17.7202 22.9387 18.7517 21.4109C20.3587 19.0301 21.733 14.5742 21.732 11.6923Z" fill="white"/>
</svg>
