<svg width="9" height="12" viewBox="0 0 9 12" fill="none" xmlns="http://www.w3.org/2000/svg">
<path d="M1.968 9.52C2.992 8.63467 3.79733 7.90933 4.384 7.344C4.98133 6.768 5.47733 6.17067 5.872 5.552C6.26667 4.93333 6.464 4.31467 6.464 3.696C6.464 3.056 6.30933 2.55467 6 2.192C5.70133 1.82933 5.22667 1.648 4.576 1.648C3.94667 1.648 3.456 1.85067 3.104 2.256C2.76267 2.65067 2.58133 3.184 2.56 3.856H0.8C0.832 2.64 1.19467 1.712 1.888 1.072C2.592 0.421333 3.48267 0.0959997 4.56 0.0959997C5.72267 0.0959997 6.62933 0.416 7.28 1.056C7.94133 1.696 8.272 2.54933 8.272 3.616C8.272 4.384 8.07467 5.12533 7.68 5.84C7.296 6.544 6.832 7.17867 6.288 7.744C5.75467 8.29867 5.072 8.944 4.24 9.68L3.52 10.32H8.592V11.84H0.816V10.512L1.968 9.52Z" fill="white"/>
</svg>
