<svg width="18" height="17" viewBox="0 0 18 17" fill="none" xmlns="http://www.w3.org/2000/svg">
<path d="M14.3422 11.125H12.5549V12.875H14.3422V11.125ZM14.3422 7.625H12.5549V9.375H14.3422V7.625ZM16.1296 14.625H8.9802V12.875H10.7675V11.125H8.9802V9.375H10.7675V7.625H8.9802V5.875H16.1296V14.625ZM7.19285 4.125H5.4055V2.375H7.19285V4.125ZM7.19285 7.625H5.4055V5.875H7.19285V7.625ZM7.19285 11.125H5.4055V9.375H7.19285V11.125ZM7.19285 14.625H5.4055V12.875H7.19285V14.625ZM3.61815 4.125H1.8308V2.375H3.61815V4.125ZM3.61815 7.625H1.8308V5.875H3.61815V7.625ZM3.61815 11.125H1.8308V9.375H3.61815V11.125ZM3.61815 14.625H1.8308V12.875H3.61815V14.625ZM8.9802 4.125V0.625H0.043457V16.375H17.9169V4.125H8.9802Z" fill="#888888"/>
</svg>
