<svg width="54" height="54" viewBox="0 0 54 54" fill="none" xmlns="http://www.w3.org/2000/svg">
<path d="M27 0.439941C12.3333 0.439941 0.333313 12.4133 0.333313 27.1599C0.333313 40.4933 10.0933 51.5599 22.84 53.5599V34.8933H16.0666V27.1599H22.84V21.2666C22.84 14.5733 26.8133 10.8933 32.92 10.8933C35.8266 10.8933 38.8666 11.3999 38.8666 11.3999V17.9866H35.5066C32.2 17.9866 31.16 20.0399 31.16 22.1466V27.1599H38.5733L37.3733 34.8933H31.16V53.5599C37.4438 52.5675 43.1659 49.3613 47.2931 44.5201C51.4204 39.6789 53.6809 33.5217 53.6666 27.1599C53.6666 12.4133 41.6666 0.439941 27 0.439941Z" fill="white"/>
</svg>
