<svg width="30" height="30" viewBox="0 0 30 30" fill="none" xmlns="http://www.w3.org/2000/svg">
<path d="M15 0.0599976C6.75 0.0599976 0 6.795 0 15.09C0 22.59 5.49 28.815 12.66 29.94V19.44H8.85V15.09H12.66V11.775C12.66 8.01 14.895 5.94 18.33 5.94C19.965 5.94 21.675 6.225 21.675 6.225V9.93H19.785C17.925 9.93 17.34 11.085 17.34 12.27V15.09H21.51L20.835 19.44H17.34V29.94C20.8747 29.3818 24.0933 27.5783 26.4149 24.8551C28.7365 22.1319 30.008 18.6685 30 15.09C30 6.795 23.25 0.0599976 15 0.0599976Z" fill="#00A69A"/>
</svg>
