<svg width="724" height="487" viewBox="0 0 724 487" fill="none" xmlns="http://www.w3.org/2000/svg">
<rect x="0.5" y="0.5" width="723" height="486" rx="8.5" fill="white"/>
<path d="M27.976 36L25.416 31.552H24.024V36H22.2V24.88H26.04C26.8933 24.88 27.6133 25.0293 28.2 25.328C28.7973 25.6267 29.24 26.0267 29.528 26.528C29.8267 27.0293 29.976 27.5893 29.976 28.208C29.976 28.9333 29.7627 29.5947 29.336 30.192C28.92 30.7787 28.2747 31.1787 27.4 31.392L30.152 36H27.976ZM24.024 30.096H26.04C26.7227 30.096 27.2347 29.9253 27.576 29.584C27.928 29.2427 28.104 28.784 28.104 28.208C28.104 27.632 27.9333 27.184 27.592 26.864C27.2507 26.5333 26.7333 26.368 26.04 26.368H24.024V30.096ZM39.9894 31.376C39.9894 31.7067 39.968 32.0053 39.9254 32.272H33.1894C33.2427 32.976 33.504 33.5413 33.9734 33.968C34.4427 34.3947 35.0187 34.608 35.7014 34.608C36.6827 34.608 37.376 34.1973 37.7814 33.376H39.7494C39.4827 34.1867 38.9974 34.8533 38.2934 35.376C37.6 35.888 36.736 36.144 35.7014 36.144C34.8587 36.144 34.1014 35.9573 33.4294 35.584C32.768 35.2 32.2454 34.6667 31.8614 33.984C31.488 33.2907 31.3014 32.4907 31.3014 31.584C31.3014 30.6773 31.4827 29.8827 31.8454 29.2C32.2187 28.5067 32.736 27.9733 33.3974 27.6C34.0694 27.2267 34.8374 27.04 35.7014 27.04C36.5334 27.04 37.2747 27.2213 37.9254 27.584C38.576 27.9467 39.0827 28.4587 39.4454 29.12C39.808 29.7707 39.9894 30.5227 39.9894 31.376ZM38.0854 30.8C38.0747 30.128 37.8347 29.5893 37.3654 29.184C36.896 28.7787 36.3147 28.576 35.6214 28.576C34.992 28.576 34.4534 28.7787 34.0054 29.184C33.5574 29.5787 33.2907 30.1173 33.2054 30.8H38.0854ZM44.5844 36.144C43.891 36.144 43.267 36.0213 42.7124 35.776C42.1684 35.52 41.7364 35.1787 41.4164 34.752C41.0964 34.3147 40.9257 33.8293 40.9044 33.296H42.7924C42.8244 33.6693 43.0004 33.984 43.3204 34.24C43.651 34.4853 44.0617 34.608 44.5524 34.608C45.0644 34.608 45.459 34.512 45.7364 34.32C46.0244 34.1173 46.1684 33.8613 46.1684 33.552C46.1684 33.2213 46.0084 32.976 45.6884 32.816C45.379 32.656 44.883 32.48 44.2004 32.288C43.539 32.1067 43.0004 31.9307 42.5844 31.76C42.1684 31.5893 41.8057 31.328 41.4964 30.976C41.1977 30.624 41.0484 30.16 41.0484 29.584C41.0484 29.1147 41.187 28.688 41.4644 28.304C41.7417 27.9093 42.1364 27.6 42.6484 27.376C43.171 27.152 43.7684 27.04 44.4404 27.04C45.443 27.04 46.2484 27.296 46.8564 27.808C47.475 28.3093 47.8057 28.9973 47.8484 29.872H46.0244C45.9924 29.4773 45.8324 29.1627 45.5444 28.928C45.2564 28.6933 44.867 28.576 44.3764 28.576C43.8964 28.576 43.5284 28.6667 43.2724 28.848C43.0164 29.0293 42.8884 29.2693 42.8884 29.568C42.8884 29.8027 42.9737 30 43.1444 30.16C43.315 30.32 43.523 30.448 43.7684 30.544C44.0137 30.6293 44.3764 30.7413 44.8564 30.88C45.4964 31.0507 46.019 31.2267 46.4244 31.408C46.8404 31.5787 47.1977 31.8347 47.4964 32.176C47.795 32.5173 47.9497 32.9707 47.9604 33.536C47.9604 34.0373 47.8217 34.4853 47.5444 34.88C47.267 35.2747 46.8724 35.584 46.3604 35.808C45.859 36.032 45.267 36.144 44.5844 36.144ZM57.5152 27.184V36H55.6912V34.96C55.4032 35.3227 55.0246 35.6107 54.5552 35.824C54.0966 36.0267 53.6059 36.128 53.0832 36.128C52.3899 36.128 51.7659 35.984 51.2112 35.696C50.6672 35.408 50.2352 34.9813 49.9152 34.416C49.6059 33.8507 49.4512 33.168 49.4512 32.368V27.184H51.2592V32.096C51.2592 32.8853 51.4566 33.4933 51.8512 33.92C52.2459 34.336 52.7846 34.544 53.4672 34.544C54.1499 34.544 54.6886 34.336 55.0832 33.92C55.4886 33.4933 55.6912 32.8853 55.6912 32.096V27.184H57.5152ZM70.1939 27.04C70.8872 27.04 71.5059 27.184 72.0499 27.472C72.6045 27.76 73.0365 28.1867 73.3459 28.752C73.6659 29.3173 73.8259 30 73.8259 30.8V36H72.0179V31.072C72.0179 30.2827 71.8205 29.68 71.4259 29.264C71.0312 28.8373 70.4925 28.624 69.8099 28.624C69.1272 28.624 68.5832 28.8373 68.1779 29.264C67.7832 29.68 67.5859 30.2827 67.5859 31.072V36H65.7779V31.072C65.7779 30.2827 65.5805 29.68 65.1859 29.264C64.7912 28.8373 64.2525 28.624 63.5699 28.624C62.8872 28.624 62.3432 28.8373 61.9379 29.264C61.5432 29.68 61.3459 30.2827 61.3459 31.072V36H59.5219V27.184H61.3459V28.192C61.6445 27.8293 62.0232 27.5467 62.4819 27.344C62.9405 27.1413 63.4312 27.04 63.9539 27.04C64.6579 27.04 65.2872 27.1893 65.8419 27.488C66.3965 27.7867 66.8232 28.2187 67.1219 28.784C67.3885 28.2507 67.8045 27.8293 68.3699 27.52C68.9352 27.2 69.5432 27.04 70.1939 27.04ZM79.5709 36.144C78.7389 36.144 77.9869 35.9573 77.3149 35.584C76.6429 35.2 76.1149 34.6667 75.7309 33.984C75.3469 33.2907 75.1549 32.4907 75.1549 31.584C75.1549 30.688 75.3522 29.8933 75.7469 29.2C76.1415 28.5067 76.6802 27.9733 77.3629 27.6C78.0455 27.2267 78.8082 27.04 79.6509 27.04C80.4935 27.04 81.2562 27.2267 81.9389 27.6C82.6215 27.9733 83.1602 28.5067 83.5549 29.2C83.9495 29.8933 84.1469 30.688 84.1469 31.584C84.1469 32.48 83.9442 33.2747 83.5389 33.968C83.1335 34.6613 82.5789 35.2 81.8749 35.584C81.1815 35.9573 80.4135 36.144 79.5709 36.144ZM79.5709 34.56C80.0402 34.56 80.4775 34.448 80.8829 34.224C81.2989 34 81.6349 33.664 81.8909 33.216C82.1469 32.768 82.2749 32.224 82.2749 31.584C82.2749 30.944 82.1522 30.4053 81.9069 29.968C81.6615 29.52 81.3362 29.184 80.9309 28.96C80.5255 28.736 80.0882 28.624 79.6189 28.624C79.1495 28.624 78.7122 28.736 78.3069 28.96C77.9122 29.184 77.5975 29.52 77.3629 29.968C77.1282 30.4053 77.0109 30.944 77.0109 31.584C77.0109 32.5333 77.2509 33.2693 77.7309 33.792C78.2215 34.304 78.8349 34.56 79.5709 34.56Z" fill="#181819" fill-opacity="0.9"/>
<path d="M29.75 63H28.476L23.352 55.23V63H22.078V53.228H23.352L28.476 60.984V53.228H29.75V63ZM34.7678 63.126C34.0491 63.126 33.3958 62.9627 32.8078 62.636C32.2291 62.3093 31.7718 61.8473 31.4358 61.25C31.1091 60.6433 30.9458 59.9433 30.9458 59.15C30.9458 58.366 31.1138 57.6753 31.4498 57.078C31.7951 56.4713 32.2618 56.0093 32.8498 55.692C33.4378 55.3653 34.0958 55.202 34.8238 55.202C35.5518 55.202 36.2098 55.3653 36.7978 55.692C37.3858 56.0093 37.8478 56.4667 38.1838 57.064C38.5291 57.6613 38.7018 58.3567 38.7018 59.15C38.7018 59.9433 38.5244 60.6433 38.1698 61.25C37.8244 61.8473 37.3531 62.3093 36.7558 62.636C36.1584 62.9627 35.4958 63.126 34.7678 63.126ZM34.7678 62.006C35.2251 62.006 35.6544 61.8987 36.0558 61.684C36.4571 61.4693 36.7791 61.1473 37.0218 60.718C37.2738 60.2887 37.3998 59.766 37.3998 59.15C37.3998 58.534 37.2784 58.0113 37.0358 57.582C36.7931 57.1527 36.4758 56.8353 36.0838 56.63C35.6918 56.4153 35.2671 56.308 34.8098 56.308C34.3431 56.308 33.9138 56.4153 33.5218 56.63C33.1391 56.8353 32.8311 57.1527 32.5978 57.582C32.3644 58.0113 32.2478 58.534 32.2478 59.15C32.2478 59.7753 32.3598 60.3027 32.5838 60.732C32.8171 61.1613 33.1251 61.4833 33.5078 61.698C33.8904 61.9033 34.3104 62.006 34.7678 62.006ZM42.7328 61.824L45.1128 55.328H46.4708L43.4608 63H41.9768L38.9668 55.328H40.3388L42.7328 61.824ZM55.7769 57.33V58.408H50.1909V57.33H55.7769ZM65.8143 53.242V60.452C65.8143 61.2547 65.5669 61.8987 65.0723 62.384C64.5776 62.86 63.9243 63.098 63.1123 63.098C62.2909 63.098 61.6329 62.8553 61.1383 62.37C60.6436 61.8753 60.3963 61.2033 60.3963 60.354H61.6703C61.6796 60.83 61.8009 61.2173 62.0343 61.516C62.2769 61.8147 62.6363 61.964 63.1123 61.964C63.5883 61.964 63.9429 61.824 64.1763 61.544C64.4096 61.2547 64.5263 60.8907 64.5263 60.452V53.242H65.8143ZM74.6281 55.328V63H73.3541V61.866C73.1114 62.258 72.7708 62.566 72.3321 62.79C71.9028 63.0047 71.4268 63.112 70.9041 63.112C70.3068 63.112 69.7701 62.9907 69.2941 62.748C68.8181 62.496 68.4401 62.1227 68.1601 61.628C67.8894 61.1333 67.7541 60.5313 67.7541 59.822V55.328H69.0141V59.654C69.0141 60.41 69.2054 60.9933 69.5881 61.404C69.9708 61.8053 70.4934 62.006 71.1561 62.006C71.8374 62.006 72.3741 61.796 72.7661 61.376C73.1581 60.956 73.3541 60.3447 73.3541 59.542V55.328H74.6281ZM77.5532 52.64V63H76.2792V52.64H77.5532ZM83.0325 55.188C83.6112 55.188 84.1338 55.314 84.6005 55.566C85.0672 55.8087 85.4312 56.1773 85.6925 56.672C85.9632 57.1667 86.0985 57.7687 86.0985 58.478V63H84.8385V58.66C84.8385 57.8947 84.6472 57.3113 84.2645 56.91C83.8818 56.4993 83.3592 56.294 82.6965 56.294C82.0245 56.294 81.4878 56.504 81.0865 56.924C80.6945 57.344 80.4985 57.9553 80.4985 58.758V63H79.2245V52.64H80.4985V56.42C80.7505 56.028 81.0958 55.7247 81.5345 55.51C81.9825 55.2953 82.4818 55.188 83.0325 55.188Z" fill="#181819" fill-opacity="0.42"/>
<rect x="0.5" y="0.5" width="723" height="486" rx="8.5" stroke="#E6E7E9"/>
<path d="M26.6391 131.395V139.955H25.227V133.07L23.1352 133.779V132.613L26.4691 131.395H26.6391ZM34.8645 134.975V136.369C34.8645 137.037 34.798 137.608 34.6652 138.08C34.5363 138.549 34.3488 138.93 34.1027 139.223C33.8566 139.516 33.5617 139.731 33.218 139.867C32.8781 140.004 32.4973 140.072 32.0754 140.072C31.7395 140.072 31.427 140.029 31.1379 139.944C30.8527 139.858 30.5949 139.723 30.3645 139.539C30.134 139.356 29.9367 139.119 29.7727 138.83C29.6125 138.537 29.4875 138.188 29.3977 137.781C29.3117 137.375 29.2688 136.904 29.2688 136.369V134.975C29.2688 134.303 29.3352 133.736 29.468 133.276C29.6008 132.811 29.7902 132.434 30.0363 132.145C30.2824 131.852 30.5754 131.639 30.9152 131.506C31.259 131.373 31.6418 131.307 32.0637 131.307C32.4035 131.307 32.716 131.35 33.0012 131.436C33.2902 131.518 33.548 131.649 33.7746 131.828C34.0051 132.008 34.2004 132.242 34.3605 132.531C34.5246 132.817 34.6496 133.162 34.7355 133.569C34.8215 133.971 34.8645 134.44 34.8645 134.975ZM33.4523 136.569V134.764C33.4523 134.424 33.4328 134.125 33.3938 133.867C33.3547 133.606 33.2961 133.385 33.218 133.205C33.1438 133.022 33.05 132.873 32.9367 132.76C32.8234 132.643 32.6945 132.559 32.55 132.508C32.4055 132.453 32.2434 132.426 32.0637 132.426C31.8449 132.426 31.6496 132.469 31.4777 132.555C31.3059 132.637 31.1613 132.77 31.0441 132.953C30.927 133.137 30.8371 133.379 30.7746 133.68C30.716 133.977 30.6867 134.338 30.6867 134.764V136.569C30.6867 136.912 30.7063 137.215 30.7453 137.477C30.7844 137.738 30.843 137.963 30.9211 138.151C30.9992 138.334 31.093 138.486 31.2023 138.608C31.3156 138.725 31.4445 138.811 31.5891 138.865C31.7375 138.92 31.8996 138.947 32.0754 138.947C32.298 138.947 32.4953 138.904 32.6672 138.819C32.8391 138.733 32.9836 138.596 33.1008 138.408C33.218 138.217 33.3059 137.969 33.3645 137.664C33.423 137.36 33.4523 136.994 33.4523 136.569ZM41.3848 134.975V136.369C41.3848 137.037 41.3184 137.608 41.1855 138.08C41.0566 138.549 40.8691 138.93 40.623 139.223C40.377 139.516 40.082 139.731 39.7383 139.867C39.3984 140.004 39.0176 140.072 38.5957 140.072C38.2598 140.072 37.9473 140.029 37.6582 139.944C37.373 139.858 37.1152 139.723 36.8848 139.539C36.6543 139.356 36.457 139.119 36.293 138.83C36.1328 138.537 36.0078 138.188 35.918 137.781C35.832 137.375 35.7891 136.904 35.7891 136.369V134.975C35.7891 134.303 35.8555 133.736 35.9883 133.276C36.1211 132.811 36.3105 132.434 36.5566 132.145C36.8027 131.852 37.0957 131.639 37.4355 131.506C37.7793 131.373 38.1621 131.307 38.584 131.307C38.9238 131.307 39.2363 131.35 39.5215 131.436C39.8105 131.518 40.0684 131.649 40.2949 131.828C40.5254 132.008 40.7207 132.242 40.8809 132.531C41.0449 132.817 41.1699 133.162 41.2559 133.569C41.3418 133.971 41.3848 134.44 41.3848 134.975ZM39.9727 136.569V134.764C39.9727 134.424 39.9531 134.125 39.9141 133.867C39.875 133.606 39.8164 133.385 39.7383 133.205C39.6641 133.022 39.5703 132.873 39.457 132.76C39.3438 132.643 39.2148 132.559 39.0703 132.508C38.9258 132.453 38.7637 132.426 38.584 132.426C38.3652 132.426 38.1699 132.469 37.998 132.555C37.8262 132.637 37.6816 132.77 37.5645 132.953C37.4473 133.137 37.3574 133.379 37.2949 133.68C37.2363 133.977 37.207 134.338 37.207 134.764V136.569C37.207 136.912 37.2266 137.215 37.2656 137.477C37.3047 137.738 37.3633 137.963 37.4414 138.151C37.5195 138.334 37.6133 138.486 37.7227 138.608C37.8359 138.725 37.9648 138.811 38.1094 138.865C38.2578 138.92 38.4199 138.947 38.5957 138.947C38.8184 138.947 39.0156 138.904 39.1875 138.819C39.3594 138.733 39.5039 138.596 39.6211 138.408C39.7383 138.217 39.8262 137.969 39.8848 137.664C39.9434 137.36 39.9727 136.994 39.9727 136.569Z" fill="#181819" fill-opacity="0.42"/>
<path d="M41.3848 417.288V418.683C41.3848 419.351 41.3184 419.921 41.1855 420.394C41.0566 420.862 40.8691 421.243 40.623 421.536C40.377 421.829 40.082 422.044 39.7383 422.181C39.3984 422.318 39.0176 422.386 38.5957 422.386C38.2598 422.386 37.9473 422.343 37.6582 422.257C37.373 422.171 37.1152 422.036 36.8848 421.853C36.6543 421.669 36.457 421.433 36.293 421.144C36.1328 420.851 36.0078 420.501 35.918 420.095C35.832 419.689 35.7891 419.218 35.7891 418.683V417.288C35.7891 416.616 35.8555 416.05 35.9883 415.589C36.1211 415.124 36.3105 414.747 36.5566 414.458C36.8027 414.165 37.0957 413.952 37.4355 413.819C37.7793 413.687 38.1621 413.62 38.584 413.62C38.9238 413.62 39.2363 413.663 39.5215 413.749C39.8105 413.831 40.0684 413.962 40.2949 414.142C40.5254 414.321 40.7207 414.556 40.8809 414.845C41.0449 415.13 41.1699 415.476 41.2559 415.882C41.3418 416.284 41.3848 416.753 41.3848 417.288ZM39.9727 418.882V417.077C39.9727 416.737 39.9531 416.439 39.9141 416.181C39.875 415.919 39.8164 415.698 39.7383 415.519C39.6641 415.335 39.5703 415.187 39.457 415.073C39.3438 414.956 39.2148 414.872 39.0703 414.821C38.9258 414.767 38.7637 414.739 38.584 414.739C38.3652 414.739 38.1699 414.782 37.998 414.868C37.8262 414.95 37.6816 415.083 37.5645 415.267C37.4473 415.45 37.3574 415.693 37.2949 415.993C37.2363 416.29 37.207 416.651 37.207 417.077V418.882C37.207 419.226 37.2266 419.528 37.2656 419.79C37.3047 420.052 37.3633 420.276 37.4414 420.464C37.5195 420.648 37.6133 420.8 37.7227 420.921C37.8359 421.038 37.9648 421.124 38.1094 421.179C38.2578 421.234 38.4199 421.261 38.5957 421.261C38.8184 421.261 39.0156 421.218 39.1875 421.132C39.3594 421.046 39.5039 420.909 39.6211 420.722C39.7383 420.53 39.8262 420.282 39.8848 419.978C39.9434 419.673 39.9727 419.308 39.9727 418.882Z" fill="#181819" fill-opacity="0.42"/>
<path d="M35.0227 327.039V328.164H29.3039V327.197L32.0813 324.168C32.3859 323.824 32.6262 323.527 32.802 323.277C32.9777 323.027 33.1008 322.803 33.1711 322.604C33.2453 322.401 33.2824 322.203 33.2824 322.012C33.2824 321.742 33.2316 321.506 33.1301 321.303C33.0324 321.096 32.8879 320.934 32.6965 320.817C32.5051 320.695 32.2727 320.635 31.9992 320.635C31.6828 320.635 31.4172 320.703 31.2023 320.84C30.9875 320.977 30.8254 321.166 30.716 321.408C30.6066 321.647 30.552 321.92 30.552 322.229H29.1398C29.1398 321.733 29.2531 321.279 29.4797 320.869C29.7063 320.455 30.0344 320.127 30.4641 319.885C30.8938 319.639 31.4113 319.516 32.0168 319.516C32.5871 319.516 33.0715 319.611 33.4699 319.803C33.8684 319.994 34.1711 320.266 34.3781 320.617C34.5891 320.969 34.6945 321.385 34.6945 321.865C34.6945 322.131 34.6516 322.395 34.5656 322.656C34.4797 322.918 34.3566 323.18 34.1965 323.442C34.0402 323.699 33.8547 323.959 33.6398 324.221C33.425 324.479 33.1887 324.74 32.9309 325.006L31.0852 327.039H35.0227ZM37.3066 324.197L36.1816 323.922L36.6445 319.633H41.2441V320.828H37.8164L37.582 322.92C37.7148 322.842 37.8984 322.766 38.1328 322.692C38.3672 322.613 38.6348 322.574 38.9355 322.574C39.3379 322.574 39.6973 322.641 40.0137 322.774C40.334 322.902 40.6055 323.092 40.8281 323.342C41.0508 323.588 41.2207 323.889 41.3379 324.244C41.4551 324.596 41.5137 324.992 41.5137 325.434C41.5137 325.828 41.4551 326.197 41.3379 326.541C41.2246 326.885 41.0527 327.188 40.8223 327.449C40.5918 327.711 40.3008 327.916 39.9492 328.065C39.6016 328.209 39.1895 328.281 38.7129 328.281C38.3574 328.281 38.0156 328.231 37.6875 328.129C37.3633 328.024 37.0723 327.869 36.8145 327.666C36.5566 327.459 36.3496 327.205 36.1934 326.904C36.0371 326.6 35.9473 326.25 35.9238 325.856H37.3066C37.3418 326.133 37.418 326.369 37.5352 326.565C37.6562 326.756 37.8164 326.902 38.0156 327.004C38.2148 327.106 38.4453 327.156 38.707 327.156C38.9453 327.156 39.1504 327.115 39.3223 327.033C39.4941 326.947 39.6367 326.826 39.75 326.67C39.8672 326.51 39.9531 326.322 40.0078 326.108C40.0664 325.893 40.0957 325.654 40.0957 325.393C40.0957 325.143 40.0625 324.914 39.9961 324.707C39.9336 324.5 39.8379 324.32 39.709 324.168C39.584 324.016 39.4258 323.899 39.2344 323.817C39.043 323.731 38.8223 323.688 38.5723 323.688C38.2363 323.688 37.9785 323.736 37.7988 323.834C37.623 323.932 37.459 324.053 37.3066 324.197Z" fill="#181819" fill-opacity="0.42"/>
<path d="M30.7863 230.093L29.6613 229.818L30.1242 225.528H34.7238V226.724H31.2961L31.0617 228.816C31.1945 228.737 31.3781 228.661 31.6125 228.587C31.8469 228.509 32.1145 228.47 32.4152 228.47C32.8176 228.47 33.177 228.536 33.4934 228.669C33.8137 228.798 34.0852 228.987 34.3078 229.237C34.5305 229.484 34.7004 229.784 34.8176 230.14C34.9348 230.491 34.9934 230.888 34.9934 231.329C34.9934 231.724 34.9348 232.093 34.8176 232.437C34.7043 232.78 34.5324 233.083 34.302 233.345C34.0715 233.607 33.7805 233.812 33.4289 233.96C33.0813 234.105 32.6691 234.177 32.1926 234.177C31.8371 234.177 31.4953 234.126 31.1672 234.025C30.843 233.919 30.552 233.765 30.2941 233.562C30.0363 233.355 29.8293 233.101 29.673 232.8C29.5168 232.495 29.427 232.146 29.4035 231.751H30.7863C30.8215 232.028 30.8977 232.265 31.0148 232.46C31.1359 232.651 31.2961 232.798 31.4953 232.9C31.6945 233.001 31.925 233.052 32.1867 233.052C32.425 233.052 32.6301 233.011 32.802 232.929C32.9738 232.843 33.1164 232.722 33.2297 232.566C33.3469 232.405 33.4328 232.218 33.4875 232.003C33.5461 231.788 33.5754 231.55 33.5754 231.288C33.5754 231.038 33.5422 230.81 33.4758 230.603C33.4133 230.396 33.3176 230.216 33.1887 230.064C33.0637 229.911 32.9055 229.794 32.7141 229.712C32.5227 229.626 32.302 229.583 32.052 229.583C31.716 229.583 31.4582 229.632 31.2785 229.73C31.1027 229.827 30.9387 229.948 30.7863 230.093ZM41.3848 229.079V230.474C41.3848 231.142 41.3184 231.712 41.1855 232.185C41.0566 232.653 40.8691 233.034 40.623 233.327C40.377 233.62 40.082 233.835 39.7383 233.972C39.3984 234.109 39.0176 234.177 38.5957 234.177C38.2598 234.177 37.9473 234.134 37.6582 234.048C37.373 233.962 37.1152 233.827 36.8848 233.644C36.6543 233.46 36.457 233.224 36.293 232.935C36.1328 232.642 36.0078 232.292 35.918 231.886C35.832 231.48 35.7891 231.009 35.7891 230.474V229.079C35.7891 228.407 35.8555 227.841 35.9883 227.38C36.1211 226.915 36.3105 226.538 36.5566 226.249C36.8027 225.956 37.0957 225.743 37.4355 225.61C37.7793 225.478 38.1621 225.411 38.584 225.411C38.9238 225.411 39.2363 225.454 39.5215 225.54C39.8105 225.622 40.0684 225.753 40.2949 225.933C40.5254 226.112 40.7207 226.347 40.8809 226.636C41.0449 226.921 41.1699 227.267 41.2559 227.673C41.3418 228.075 41.3848 228.544 41.3848 229.079ZM39.9727 230.673V228.868C39.9727 228.528 39.9531 228.23 39.9141 227.972C39.875 227.71 39.8164 227.489 39.7383 227.31C39.6641 227.126 39.5703 226.978 39.457 226.864C39.3438 226.747 39.2148 226.663 39.0703 226.612C38.9258 226.558 38.7637 226.53 38.584 226.53C38.3652 226.53 38.1699 226.573 37.998 226.659C37.8262 226.741 37.6816 226.874 37.5645 227.058C37.4473 227.241 37.3574 227.484 37.2949 227.784C37.2363 228.081 37.207 228.443 37.207 228.868V230.673C37.207 231.017 37.2266 231.319 37.2656 231.581C37.3047 231.843 37.3633 232.068 37.4414 232.255C37.5195 232.439 37.6133 232.591 37.7227 232.712C37.8359 232.829 37.9648 232.915 38.1094 232.97C38.2578 233.025 38.4199 233.052 38.5957 233.052C38.8184 233.052 39.0156 233.009 39.1875 232.923C39.3594 232.837 39.5039 232.7 39.6211 232.513C39.7383 232.321 39.8262 232.073 39.8848 231.769C39.9434 231.464 39.9727 231.099 39.9727 230.673Z" fill="#181819" fill-opacity="0.42"/>
<path d="M504.928 41.2512H501.436L500.836 42.9552H499.408L502.396 34.6032H503.98L506.968 42.9552H505.528L504.928 41.2512ZM504.544 40.1352L503.188 36.2592L501.82 40.1352H504.544ZM514.399 37.0992C514.399 37.5232 514.299 37.9232 514.099 38.2992C513.899 38.6752 513.579 38.9832 513.139 39.2232C512.699 39.4552 512.135 39.5712 511.447 39.5712H509.935V42.9552H508.567V34.6152H511.447C512.087 34.6152 512.627 34.7272 513.067 34.9512C513.515 35.1672 513.847 35.4632 514.063 35.8392C514.287 36.2152 514.399 36.6352 514.399 37.0992ZM511.447 38.4552C511.967 38.4552 512.355 38.3392 512.611 38.1072C512.867 37.8672 512.995 37.5312 512.995 37.0992C512.995 36.1872 512.479 35.7312 511.447 35.7312H509.935V38.4552H511.447ZM517.372 41.8512H520.192V42.9552H516.004V34.6152H517.372V41.8512ZM523.004 34.6152V42.9552H521.636V34.6152H523.004ZM524.644 38.7672C524.644 37.9512 524.832 37.2192 525.208 36.5712C525.592 35.9232 526.108 35.4192 526.756 35.0592C527.412 34.6912 528.128 34.5072 528.904 34.5072C529.792 34.5072 530.58 34.7272 531.268 35.1672C531.964 35.5992 532.468 36.2152 532.78 37.0152H531.136C530.92 36.5752 530.62 36.2472 530.236 36.0312C529.852 35.8152 529.408 35.7072 528.904 35.7072C528.352 35.7072 527.86 35.8312 527.428 36.0792C526.996 36.3272 526.656 36.6832 526.408 37.1472C526.168 37.6112 526.048 38.1512 526.048 38.7672C526.048 39.3832 526.168 39.9232 526.408 40.3872C526.656 40.8512 526.996 41.2112 527.428 41.4672C527.86 41.7152 528.352 41.8392 528.904 41.8392C529.408 41.8392 529.852 41.7312 530.236 41.5152C530.62 41.2992 530.92 40.9712 531.136 40.5312H532.78C532.468 41.3312 531.964 41.9472 531.268 42.3792C530.58 42.8112 529.792 43.0272 528.904 43.0272C528.12 43.0272 527.404 42.8472 526.756 42.4872C526.108 42.1192 525.592 41.6112 525.208 40.9632C524.832 40.3152 524.644 39.5832 524.644 38.7672ZM539.709 41.2512H536.217L535.617 42.9552H534.189L537.177 34.6032H538.761L541.749 42.9552H540.309L539.709 41.2512ZM539.325 40.1352L537.969 36.2592L536.601 40.1352H539.325ZM547.152 41.8392C547.656 41.8392 548.1 41.7312 548.484 41.5152C548.868 41.2992 549.168 40.9712 549.384 40.5312H551.028C550.74 41.2672 550.292 41.8512 549.684 42.2832C549.076 42.7072 548.372 42.9512 547.572 43.0152V43.5312C548.036 43.5312 548.412 43.6392 548.7 43.8552C548.988 44.0792 549.132 44.3912 549.132 44.7912C549.132 45.1912 548.988 45.5072 548.7 45.7392C548.412 45.9792 548.048 46.0992 547.608 46.0992H546.024V45.2352H547.332C547.556 45.2352 547.724 45.2032 547.836 45.1392C547.948 45.0752 548.004 44.9592 548.004 44.7912C548.004 44.6232 547.948 44.5072 547.836 44.4432C547.724 44.3792 547.556 44.3472 547.332 44.3472H546.672V43.0032C545.968 42.9312 545.328 42.7072 544.752 42.3312C544.176 41.9552 543.72 41.4592 543.384 40.8432C543.056 40.2192 542.892 39.5272 542.892 38.7672C542.892 37.9512 543.08 37.2192 543.456 36.5712C543.84 35.9232 544.356 35.4192 545.004 35.0592C545.66 34.6912 546.376 34.5072 547.152 34.5072C548.04 34.5072 548.828 34.7272 549.516 35.1672C550.212 35.5992 550.716 36.2152 551.028 37.0152H549.384C549.168 36.5752 548.868 36.2472 548.484 36.0312C548.1 35.8152 547.656 35.7072 547.152 35.7072C546.6 35.7072 546.108 35.8312 545.676 36.0792C545.244 36.3272 544.904 36.6832 544.656 37.1472C544.416 37.6112 544.296 38.1512 544.296 38.7672C544.296 39.3832 544.416 39.9232 544.656 40.3872C544.904 40.8512 545.244 41.2112 545.676 41.4672C546.108 41.7152 546.6 41.8392 547.152 41.8392ZM556.734 43.0392C555.958 43.0392 555.242 42.8592 554.586 42.4992C553.938 42.1312 553.422 41.6232 553.038 40.9752C552.662 40.3192 552.474 39.5832 552.474 38.7672C552.474 37.9512 552.662 37.2192 553.038 36.5712C553.422 35.9232 553.938 35.4192 554.586 35.0592C555.242 34.6912 555.958 34.5072 556.734 34.5072C557.518 34.5072 558.234 34.6912 558.882 35.0592C559.538 35.4192 560.054 35.9232 560.43 36.5712C560.806 37.2192 560.994 37.9512 560.994 38.7672C560.994 39.5832 560.806 40.3192 560.43 40.9752C560.054 41.6232 559.538 42.1312 558.882 42.4992C558.234 42.8592 557.518 43.0392 556.734 43.0392ZM556.734 41.8512C557.286 41.8512 557.778 41.7272 558.21 41.4792C558.642 41.2232 558.978 40.8632 559.218 40.3992C559.466 39.9272 559.59 39.3832 559.59 38.7672C559.59 38.1512 559.466 37.6112 559.218 37.1472C558.978 36.6832 558.642 36.3272 558.21 36.0792C557.778 35.8312 557.286 35.7072 556.734 35.7072C556.182 35.7072 555.69 35.8312 555.258 36.0792C554.826 36.3272 554.486 36.6832 554.238 37.1472C553.998 37.6112 553.878 38.1512 553.878 38.7672C553.878 39.3832 553.998 39.9272 554.238 40.3992C554.486 40.8632 554.826 41.2232 555.258 41.4792C555.69 41.7272 556.182 41.8512 556.734 41.8512ZM554.778 33.9192C554.842 33.4552 554.994 33.1072 555.234 32.8752C555.474 32.6352 555.774 32.5152 556.134 32.5152C556.286 32.5152 556.418 32.5392 556.53 32.5872C556.642 32.6352 556.778 32.7072 556.938 32.8032C557.058 32.8832 557.158 32.9432 557.238 32.9832C557.326 33.0232 557.422 33.0432 557.526 33.0432C557.662 33.0432 557.774 33.0032 557.862 32.9232C557.958 32.8352 558.018 32.7072 558.042 32.5392H558.81C558.746 33.0032 558.594 33.3552 558.354 33.5952C558.114 33.8272 557.814 33.9432 557.454 33.9432C557.302 33.9432 557.166 33.9192 557.046 33.8712C556.926 33.8152 556.794 33.7392 556.65 33.6432C556.506 33.5552 556.394 33.4952 556.314 33.4632C556.242 33.4232 556.158 33.4032 556.062 33.4032C555.926 33.4032 555.81 33.4472 555.714 33.5352C555.626 33.6232 555.57 33.7512 555.546 33.9192H554.778ZM564.008 35.7192V38.1672H566.888V39.2832H564.008V41.8392H567.248V42.9552H562.64V34.6032H567.248V35.7192H564.008ZM571.981 43.0392C571.421 43.0392 570.917 42.9432 570.469 42.7512C570.021 42.5512 569.669 42.2712 569.413 41.9112C569.157 41.5512 569.029 41.1312 569.029 40.6512H570.493C570.525 41.0112 570.665 41.3072 570.913 41.5392C571.169 41.7712 571.525 41.8872 571.981 41.8872C572.453 41.8872 572.821 41.7752 573.085 41.5512C573.349 41.3192 573.481 41.0232 573.481 40.6632C573.481 40.3832 573.397 40.1552 573.229 39.9792C573.069 39.8032 572.865 39.6672 572.617 39.5712C572.377 39.4752 572.041 39.3712 571.609 39.2592C571.065 39.1152 570.621 38.9712 570.277 38.8272C569.941 38.6752 569.653 38.4432 569.413 38.1312C569.173 37.8192 569.053 37.4032 569.053 36.8832C569.053 36.4032 569.173 35.9832 569.413 35.6232C569.653 35.2632 569.989 34.9872 570.421 34.7952C570.853 34.6032 571.353 34.5072 571.921 34.5072C572.729 34.5072 573.389 34.7112 573.901 35.1192C574.421 35.5192 574.709 36.0712 574.765 36.7752H573.253C573.229 36.4712 573.085 36.2112 572.821 35.9952C572.557 35.7792 572.209 35.6712 571.777 35.6712C571.385 35.6712 571.065 35.7712 570.817 35.9712C570.569 36.1712 570.445 36.4592 570.445 36.8352C570.445 37.0912 570.521 37.3032 570.673 37.4712C570.833 37.6312 571.033 37.7592 571.273 37.8552C571.513 37.9512 571.841 38.0552 572.257 38.1672C572.809 38.3192 573.257 38.4712 573.601 38.6232C573.953 38.7752 574.249 39.0112 574.489 39.3312C574.737 39.6432 574.861 40.0632 574.861 40.5912C574.861 41.0152 574.745 41.4152 574.513 41.7912C574.289 42.1672 573.957 42.4712 573.517 42.7032C573.085 42.9272 572.573 43.0392 571.981 43.0392Z" fill="#181819" fill-opacity="0.42"/>
<path d="M505.976 69.9552L503.416 65.5072H502.024V69.9552H500.2V58.8352H504.04C504.893 58.8352 505.613 58.9846 506.2 59.2832C506.797 59.5819 507.24 59.9819 507.528 60.4832C507.827 60.9846 507.976 61.5446 507.976 62.1632C507.976 62.8886 507.763 63.5499 507.336 64.1472C506.92 64.7339 506.275 65.1339 505.4 65.3472L508.152 69.9552H505.976ZM502.024 64.0512H504.04C504.723 64.0512 505.235 63.8806 505.576 63.5392C505.928 63.1979 506.104 62.7392 506.104 62.1632C506.104 61.5872 505.933 61.1392 505.592 60.8192C505.251 60.4886 504.733 60.3232 504.04 60.3232H502.024V64.0512ZM517.413 66.7872C517.413 67.3206 517.28 67.8219 517.013 68.2912C516.757 68.7606 516.373 69.1552 515.861 69.4752C515.36 69.7952 514.763 69.9872 514.069 70.0512V71.3472H513.029V70.0512C512.027 69.9552 511.216 69.6406 510.597 69.1072C509.979 68.5739 509.669 67.8699 509.669 66.9952H511.621C511.653 67.4112 511.787 67.7579 512.021 68.0352C512.256 68.3019 512.592 68.4726 513.029 68.5472V65.0272C512.315 64.8459 511.733 64.6646 511.285 64.4832C510.837 64.2912 510.453 63.9926 510.133 63.5872C509.824 63.1819 509.669 62.6272 509.669 61.9232C509.669 61.0379 509.979 60.3072 510.597 59.7312C511.216 59.1446 512.027 58.8032 513.029 58.7072V57.4112H514.069V58.7072C515.008 58.7926 515.76 59.0912 516.325 59.6032C516.901 60.1046 517.227 60.7979 517.301 61.6832H515.349C515.317 61.3526 515.189 61.0592 514.965 60.8032C514.741 60.5366 514.443 60.3552 514.069 60.2592V63.7152C514.784 63.8859 515.365 64.0672 515.813 64.2592C516.261 64.4406 516.64 64.7339 516.949 65.1392C517.259 65.5339 517.413 66.0832 517.413 66.7872ZM511.525 61.8272C511.525 62.2646 511.653 62.6059 511.909 62.8512C512.176 63.0966 512.549 63.2939 513.029 63.4432V60.2112C512.571 60.2646 512.203 60.4299 511.925 60.7072C511.659 60.9846 511.525 61.3579 511.525 61.8272ZM514.069 68.5472C514.539 68.4726 514.907 68.2859 515.173 67.9872C515.44 67.6779 515.573 67.3099 515.573 66.8832C515.573 66.4566 515.44 66.1259 515.173 65.8912C514.917 65.6459 514.549 65.4486 514.069 65.2992V68.5472ZM529.704 60.9952C529.587 60.5046 529.373 60.1366 529.064 59.8912C528.755 59.6459 528.323 59.5232 527.768 59.5232C526.925 59.5232 526.296 59.8486 525.88 60.4992C525.464 61.1392 525.245 62.2059 525.224 63.6992C525.501 63.2299 525.907 62.8672 526.44 62.6112C526.973 62.3552 527.549 62.2272 528.168 62.2272C528.872 62.2272 529.491 62.3819 530.024 62.6912C530.568 62.9899 530.989 63.4272 531.288 64.0032C531.597 64.5792 531.752 65.2672 531.752 66.0672C531.752 66.8139 531.603 67.4806 531.304 68.0672C531.016 68.6539 530.584 69.1179 530.008 69.4592C529.432 69.7899 528.739 69.9552 527.928 69.9552C526.829 69.9552 525.965 69.7152 525.336 69.2352C524.717 68.7446 524.28 68.0566 524.024 67.1712C523.779 66.2859 523.656 65.1819 523.656 63.8592C523.656 59.9552 525.032 58.0032 527.784 58.0032C528.851 58.0032 529.688 58.2912 530.296 58.8672C530.915 59.4432 531.277 60.1526 531.384 60.9952H529.704ZM527.768 63.7632C527.117 63.7632 526.563 63.9606 526.104 64.3552C525.656 64.7392 525.432 65.2992 525.432 66.0352C525.432 66.7712 525.64 67.3579 526.056 67.7952C526.483 68.2219 527.075 68.4352 527.832 68.4352C528.504 68.4352 529.032 68.2272 529.416 67.8112C529.811 67.3952 530.008 66.8406 530.008 66.1472C530.008 65.4219 529.816 64.8459 529.432 64.4192C529.059 63.9819 528.504 63.7632 527.768 63.7632ZM534.274 70.0672C533.943 70.0672 533.666 69.9552 533.442 69.7312C533.218 69.5072 533.106 69.2299 533.106 68.8992C533.106 68.5686 533.218 68.2912 533.442 68.0672C533.666 67.8432 533.943 67.7312 534.274 67.7312C534.594 67.7312 534.866 67.8432 535.09 68.0672C535.314 68.2912 535.426 68.5686 535.426 68.8992C535.426 69.2299 535.314 69.5072 535.09 69.7312C534.866 69.9552 534.594 70.0672 534.274 70.0672ZM536.725 61.1712C536.789 60.1792 537.168 59.4059 537.861 58.8512C538.565 58.2966 539.461 58.0192 540.549 58.0192C541.296 58.0192 541.941 58.1526 542.485 58.4192C543.029 58.6859 543.44 59.0486 543.717 59.5072C543.994 59.9659 544.133 60.4832 544.133 61.0592C544.133 61.7206 543.957 62.2859 543.605 62.7552C543.253 63.2246 542.832 63.5392 542.341 63.6992V63.7632C542.97 63.9552 543.461 64.3072 543.813 64.8192C544.165 65.3206 544.341 65.9659 544.341 66.7552C544.341 67.3846 544.197 67.9446 543.909 68.4352C543.621 68.9259 543.194 69.3152 542.629 69.6032C542.064 69.8806 541.386 70.0192 540.597 70.0192C539.445 70.0192 538.496 69.7259 537.749 69.1392C537.013 68.5419 536.618 67.6886 536.565 66.5792H538.325C538.368 67.1446 538.586 67.6086 538.981 67.9712C539.376 68.3232 539.909 68.4992 540.581 68.4992C541.232 68.4992 541.733 68.3232 542.085 67.9712C542.437 67.6086 542.613 67.1446 542.613 66.5792C542.613 65.8326 542.373 65.3046 541.893 64.9952C541.424 64.6752 540.698 64.5152 539.717 64.5152H539.301V63.0112H539.733C540.597 63.0006 541.253 62.8566 541.701 62.5792C542.16 62.3019 542.389 61.8646 542.389 61.2672C542.389 60.7552 542.224 60.3499 541.893 60.0512C541.562 59.7419 541.093 59.5872 540.485 59.5872C539.888 59.5872 539.424 59.7419 539.093 60.0512C538.762 60.3499 538.565 60.7232 538.501 61.1712H536.725ZM546.865 67.4752C547.889 66.5899 548.694 65.8646 549.281 65.2992C549.878 64.7232 550.374 64.1259 550.769 63.5072C551.164 62.8886 551.361 62.2699 551.361 61.6512C551.361 61.0112 551.206 60.5099 550.897 60.1472C550.598 59.7846 550.124 59.6032 549.473 59.6032C548.844 59.6032 548.353 59.8059 548.001 60.2112C547.66 60.6059 547.478 61.1392 547.457 61.8112H545.697C545.729 60.5952 546.092 59.6672 546.785 59.0272C547.489 58.3766 548.38 58.0512 549.457 58.0512C550.62 58.0512 551.526 58.3712 552.177 59.0112C552.838 59.6512 553.169 60.5046 553.169 61.5712C553.169 62.3392 552.972 63.0806 552.577 63.7952C552.193 64.4992 551.729 65.1339 551.185 65.6992C550.652 66.2539 549.969 66.8992 549.137 67.6352L548.417 68.2752H553.489V69.7952H545.713V68.4672L546.865 67.4752ZM554.451 59.9552V58.2912H557.779V69.9552H555.939V59.9552H554.451ZM562.125 67.7632L560.189 72.1792H559.005L560.141 67.7632H562.125ZM563.079 63.9712C563.079 62.1259 563.388 60.6859 564.007 59.6512C564.636 58.6059 565.713 58.0832 567.239 58.0832C568.764 58.0832 569.836 58.6059 570.455 59.6512C571.084 60.6859 571.399 62.1259 571.399 63.9712C571.399 65.8379 571.084 67.2992 570.455 68.3552C569.836 69.4006 568.764 69.9232 567.239 69.9232C565.713 69.9232 564.636 69.4006 564.007 68.3552C563.388 67.2992 563.079 65.8379 563.079 63.9712ZM569.607 63.9712C569.607 63.1072 569.548 62.3766 569.431 61.7792C569.324 61.1819 569.1 60.6966 568.759 60.3232C568.417 59.9392 567.911 59.7472 567.239 59.7472C566.567 59.7472 566.06 59.9392 565.719 60.3232C565.377 60.6966 565.148 61.1819 565.031 61.7792C564.924 62.3766 564.871 63.1072 564.871 63.9712C564.871 64.8672 564.924 65.6192 565.031 66.2272C565.137 66.8352 565.361 67.3259 565.703 67.6992C566.055 68.0726 566.567 68.2592 567.239 68.2592C567.911 68.2592 568.417 68.0726 568.759 67.6992C569.111 67.3259 569.34 66.8352 569.447 66.2272C569.553 65.6192 569.607 64.8672 569.607 63.9712ZM572.929 63.9712C572.929 62.1259 573.238 60.6859 573.857 59.6512C574.486 58.6059 575.563 58.0832 577.089 58.0832C578.614 58.0832 579.686 58.6059 580.305 59.6512C580.934 60.6859 581.249 62.1259 581.249 63.9712C581.249 65.8379 580.934 67.2992 580.305 68.3552C579.686 69.4006 578.614 69.9232 577.089 69.9232C575.563 69.9232 574.486 69.4006 573.857 68.3552C573.238 67.2992 572.929 65.8379 572.929 63.9712ZM579.457 63.9712C579.457 63.1072 579.398 62.3766 579.281 61.7792C579.174 61.1819 578.95 60.6966 578.609 60.3232C578.267 59.9392 577.761 59.7472 577.089 59.7472C576.417 59.7472 575.91 59.9392 575.569 60.3232C575.227 60.6966 574.998 61.1819 574.881 61.7792C574.774 62.3766 574.721 63.1072 574.721 63.9712C574.721 64.8672 574.774 65.6192 574.881 66.2272C574.987 66.8352 575.211 67.3259 575.553 67.6992C575.905 68.0726 576.417 68.2592 577.089 68.2592C577.761 68.2592 578.267 68.0726 578.609 67.6992C578.961 67.3259 579.19 66.8352 579.297 66.2272C579.403 65.6192 579.457 64.8672 579.457 63.9712Z" fill="#181819" fill-opacity="0.9"/>
<rect x="483" y="33.9552" width="8" height="8" rx="4" fill="#1A877F"/>
<path d="M641.732 37.0992C641.732 37.5232 641.632 37.9232 641.432 38.2992C641.232 38.6752 640.912 38.9832 640.472 39.2232C640.032 39.4552 639.468 39.5712 638.78 39.5712H637.268V42.9552H635.9V34.6152H638.78C639.42 34.6152 639.96 34.7272 640.4 34.9512C640.848 35.1672 641.18 35.4632 641.396 35.8392C641.62 36.2152 641.732 36.6352 641.732 37.0992ZM638.78 38.4552C639.3 38.4552 639.688 38.3392 639.944 38.1072C640.2 37.8672 640.328 37.5312 640.328 37.0992C640.328 36.1872 639.812 35.7312 638.78 35.7312H637.268V38.4552H638.78ZM647.669 42.9552L645.749 39.6192H644.705V42.9552H643.337V34.6152H646.217C646.857 34.6152 647.397 34.7272 647.837 34.9512C648.285 35.1752 648.617 35.4752 648.833 35.8512C649.057 36.2272 649.169 36.6472 649.169 37.1112C649.169 37.6552 649.009 38.1512 648.689 38.5992C648.377 39.0392 647.893 39.3392 647.237 39.4992L649.301 42.9552H647.669ZM644.705 38.5272H646.217C646.729 38.5272 647.113 38.3992 647.369 38.1432C647.633 37.8872 647.765 37.5432 647.765 37.1112C647.765 36.6792 647.637 36.3432 647.381 36.1032C647.125 35.8552 646.737 35.7312 646.217 35.7312H644.705V38.5272ZM655.023 43.0392C654.247 43.0392 653.531 42.8592 652.875 42.4992C652.227 42.1312 651.711 41.6232 651.327 40.9752C650.951 40.3192 650.763 39.5832 650.763 38.7672C650.763 37.9512 650.951 37.2192 651.327 36.5712C651.711 35.9232 652.227 35.4192 652.875 35.0592C653.531 34.6912 654.247 34.5072 655.023 34.5072C655.807 34.5072 656.523 34.6912 657.171 35.0592C657.827 35.4192 658.343 35.9232 658.719 36.5712C659.095 37.2192 659.283 37.9512 659.283 38.7672C659.283 39.5832 659.095 40.3192 658.719 40.9752C658.343 41.6232 657.827 42.1312 657.171 42.4992C656.523 42.8592 655.807 43.0392 655.023 43.0392ZM655.023 41.8512C655.575 41.8512 656.067 41.7272 656.499 41.4792C656.931 41.2232 657.267 40.8632 657.507 40.3992C657.755 39.9272 657.879 39.3832 657.879 38.7672C657.879 38.1512 657.755 37.6112 657.507 37.1472C657.267 36.6832 656.931 36.3272 656.499 36.0792C656.067 35.8312 655.575 35.7072 655.023 35.7072C654.471 35.7072 653.979 35.8312 653.547 36.0792C653.115 36.3272 652.775 36.6832 652.527 37.1472C652.287 37.6112 652.167 38.1512 652.167 38.7672C652.167 39.3832 652.287 39.9272 652.527 40.3992C652.775 40.8632 653.115 41.2232 653.547 41.4792C653.979 41.7272 654.471 41.8512 655.023 41.8512ZM663.653 34.6152C664.541 34.6152 665.317 34.7872 665.981 35.1312C666.653 35.4672 667.169 35.9552 667.529 36.5952C667.897 37.2272 668.081 37.9672 668.081 38.8152C668.081 39.6632 667.897 40.3992 667.529 41.0232C667.169 41.6472 666.653 42.1272 665.981 42.4632C665.317 42.7912 664.541 42.9552 663.653 42.9552H660.929V34.6152H663.653ZM663.653 41.8392C664.629 41.8392 665.377 41.5752 665.897 41.0472C666.417 40.5192 666.677 39.7752 666.677 38.8152C666.677 37.8472 666.417 37.0912 665.897 36.5472C665.377 36.0032 664.629 35.7312 663.653 35.7312H662.297V41.8392H663.653ZM671.093 34.6152V39.9312C671.093 40.5632 671.257 41.0392 671.585 41.3592C671.921 41.6792 672.385 41.8392 672.977 41.8392C673.577 41.8392 674.041 41.6792 674.369 41.3592C674.705 41.0392 674.873 40.5632 674.873 39.9312V34.6152H676.241V39.9072C676.241 40.5872 676.093 41.1632 675.797 41.6352C675.501 42.1072 675.105 42.4592 674.609 42.6912C674.113 42.9232 673.565 43.0392 672.965 43.0392C672.365 43.0392 671.817 42.9232 671.321 42.6912C670.833 42.4592 670.445 42.1072 670.157 41.6352C669.869 41.1632 669.725 40.5872 669.725 39.9072V34.6152H671.093ZM682.126 41.8392C682.63 41.8392 683.074 41.7312 683.458 41.5152C683.842 41.2992 684.142 40.9712 684.358 40.5312H686.002C685.714 41.2672 685.266 41.8512 684.658 42.2832C684.05 42.7072 683.346 42.9512 682.546 43.0152V43.5312C683.01 43.5312 683.386 43.6392 683.674 43.8552C683.962 44.0792 684.106 44.3912 684.106 44.7912C684.106 45.1912 683.962 45.5072 683.674 45.7392C683.386 45.9792 683.022 46.0992 682.582 46.0992H680.998V45.2352H682.306C682.53 45.2352 682.698 45.2032 682.81 45.1392C682.922 45.0752 682.978 44.9592 682.978 44.7912C682.978 44.6232 682.922 44.5072 682.81 44.4432C682.698 44.3792 682.53 44.3472 682.306 44.3472H681.646V43.0032C680.942 42.9312 680.302 42.7072 679.726 42.3312C679.15 41.9552 678.694 41.4592 678.358 40.8432C678.03 40.2192 677.866 39.5272 677.866 38.7672C677.866 37.9512 678.054 37.2192 678.43 36.5712C678.814 35.9232 679.33 35.4192 679.978 35.0592C680.634 34.6912 681.35 34.5072 682.126 34.5072C683.014 34.5072 683.802 34.7272 684.49 35.1672C685.186 35.5992 685.69 36.2152 686.002 37.0152H684.358C684.142 36.5752 683.842 36.2472 683.458 36.0312C683.074 35.8152 682.63 35.7072 682.126 35.7072C681.574 35.7072 681.082 35.8312 680.65 36.0792C680.218 36.3272 679.878 36.6832 679.63 37.1472C679.39 37.6112 679.27 38.1512 679.27 38.7672C679.27 39.3832 679.39 39.9232 679.63 40.3872C679.878 40.8512 680.218 41.2112 680.65 41.4672C681.082 41.7152 681.574 41.8392 682.126 41.8392ZM691.707 43.0392C690.931 43.0392 690.215 42.8592 689.559 42.4992C688.911 42.1312 688.395 41.6232 688.011 40.9752C687.635 40.3192 687.447 39.5832 687.447 38.7672C687.447 37.9512 687.635 37.2192 688.011 36.5712C688.395 35.9232 688.911 35.4192 689.559 35.0592C690.215 34.6912 690.931 34.5072 691.707 34.5072C692.491 34.5072 693.207 34.6912 693.855 35.0592C694.511 35.4192 695.027 35.9232 695.403 36.5712C695.779 37.2192 695.967 37.9512 695.967 38.7672C695.967 39.5832 695.779 40.3192 695.403 40.9752C695.027 41.6232 694.511 42.1312 693.855 42.4992C693.207 42.8592 692.491 43.0392 691.707 43.0392ZM691.707 41.8512C692.259 41.8512 692.751 41.7272 693.183 41.4792C693.615 41.2232 693.951 40.8632 694.191 40.3992C694.439 39.9272 694.563 39.3832 694.563 38.7672C694.563 38.1512 694.439 37.6112 694.191 37.1472C693.951 36.6832 693.615 36.3272 693.183 36.0792C692.751 35.8312 692.259 35.7072 691.707 35.7072C691.155 35.7072 690.663 35.8312 690.231 36.0792C689.799 36.3272 689.459 36.6832 689.211 37.1472C688.971 37.6112 688.851 38.1512 688.851 38.7672C688.851 39.3832 688.971 39.9272 689.211 40.3992C689.459 40.8632 689.799 41.2232 690.231 41.4792C690.663 41.7272 691.155 41.8512 691.707 41.8512ZM689.751 33.9192C689.815 33.4552 689.967 33.1072 690.207 32.8752C690.447 32.6352 690.747 32.5152 691.107 32.5152C691.259 32.5152 691.391 32.5392 691.503 32.5872C691.615 32.6352 691.751 32.7072 691.911 32.8032C692.031 32.8832 692.131 32.9432 692.211 32.9832C692.299 33.0232 692.395 33.0432 692.499 33.0432C692.635 33.0432 692.747 33.0032 692.835 32.9232C692.931 32.8352 692.991 32.7072 693.015 32.5392H693.783C693.719 33.0032 693.567 33.3552 693.327 33.5952C693.087 33.8272 692.787 33.9432 692.427 33.9432C692.275 33.9432 692.139 33.9192 692.019 33.8712C691.899 33.8152 691.767 33.7392 691.623 33.6432C691.479 33.5552 691.367 33.4952 691.287 33.4632C691.215 33.4232 691.131 33.4032 691.035 33.4032C690.899 33.4032 690.783 33.4472 690.687 33.5352C690.599 33.6232 690.543 33.7512 690.519 33.9192H689.751ZM698.981 35.7192V38.1672H701.861V39.2832H698.981V41.8392H702.221V42.9552H697.613V34.6032H702.221V35.7192H698.981ZM706.954 43.0392C706.394 43.0392 705.89 42.9432 705.442 42.7512C704.994 42.5512 704.642 42.2712 704.386 41.9112C704.13 41.5512 704.002 41.1312 704.002 40.6512H705.466C705.498 41.0112 705.638 41.3072 705.886 41.5392C706.142 41.7712 706.498 41.8872 706.954 41.8872C707.426 41.8872 707.794 41.7752 708.058 41.5512C708.322 41.3192 708.454 41.0232 708.454 40.6632C708.454 40.3832 708.37 40.1552 708.202 39.9792C708.042 39.8032 707.838 39.6672 707.59 39.5712C707.35 39.4752 707.014 39.3712 706.582 39.2592C706.038 39.1152 705.594 38.9712 705.25 38.8272C704.914 38.6752 704.626 38.4432 704.386 38.1312C704.146 37.8192 704.026 37.4032 704.026 36.8832C704.026 36.4032 704.146 35.9832 704.386 35.6232C704.626 35.2632 704.962 34.9872 705.394 34.7952C705.826 34.6032 706.326 34.5072 706.894 34.5072C707.702 34.5072 708.362 34.7112 708.874 35.1192C709.394 35.5192 709.682 36.0712 709.738 36.7752H708.226C708.202 36.4712 708.058 36.2112 707.794 35.9952C707.53 35.7792 707.182 35.6712 706.75 35.6712C706.358 35.6712 706.038 35.7712 705.79 35.9712C705.542 36.1712 705.418 36.4592 705.418 36.8352C705.418 37.0912 705.494 37.3032 705.646 37.4712C705.806 37.6312 706.006 37.7592 706.246 37.8552C706.486 37.9512 706.814 38.0552 707.23 38.1672C707.782 38.3192 708.23 38.4712 708.574 38.6232C708.926 38.7752 709.222 39.0112 709.462 39.3312C709.71 39.6432 709.834 40.0632 709.834 40.5912C709.834 41.0152 709.718 41.4152 709.486 41.7912C709.262 42.1672 708.93 42.4712 708.49 42.7032C708.058 42.9272 707.546 43.0392 706.954 43.0392Z" fill="#181819" fill-opacity="0.42"/>
<path d="M641.976 69.9552L639.416 65.5072H638.024V69.9552H636.2V58.8352H640.04C640.893 58.8352 641.613 58.9846 642.2 59.2832C642.797 59.5819 643.24 59.9819 643.528 60.4832C643.827 60.9846 643.976 61.5446 643.976 62.1632C643.976 62.8886 643.763 63.5499 643.336 64.1472C642.92 64.7339 642.275 65.1339 641.4 65.3472L644.152 69.9552H641.976ZM638.024 64.0512H640.04C640.723 64.0512 641.235 63.8806 641.576 63.5392C641.928 63.1979 642.104 62.7392 642.104 62.1632C642.104 61.5872 641.933 61.1392 641.592 60.8192C641.251 60.4886 640.733 60.3232 640.04 60.3232H638.024V64.0512ZM653.413 66.7872C653.413 67.3206 653.28 67.8219 653.013 68.2912C652.757 68.7606 652.373 69.1552 651.861 69.4752C651.36 69.7952 650.763 69.9872 650.069 70.0512V71.3472H649.029V70.0512C648.027 69.9552 647.216 69.6406 646.597 69.1072C645.979 68.5739 645.669 67.8699 645.669 66.9952H647.621C647.653 67.4112 647.787 67.7579 648.021 68.0352C648.256 68.3019 648.592 68.4726 649.029 68.5472V65.0272C648.315 64.8459 647.733 64.6646 647.285 64.4832C646.837 64.2912 646.453 63.9926 646.133 63.5872C645.824 63.1819 645.669 62.6272 645.669 61.9232C645.669 61.0379 645.979 60.3072 646.597 59.7312C647.216 59.1446 648.027 58.8032 649.029 58.7072V57.4112H650.069V58.7072C651.008 58.7926 651.76 59.0912 652.325 59.6032C652.901 60.1046 653.227 60.7979 653.301 61.6832H651.349C651.317 61.3526 651.189 61.0592 650.965 60.8032C650.741 60.5366 650.443 60.3552 650.069 60.2592V63.7152C650.784 63.8859 651.365 64.0672 651.813 64.2592C652.261 64.4406 652.64 64.7339 652.949 65.1392C653.259 65.5339 653.413 66.0832 653.413 66.7872ZM647.525 61.8272C647.525 62.2646 647.653 62.6059 647.909 62.8512C648.176 63.0966 648.549 63.2939 649.029 63.4432V60.2112C648.571 60.2646 648.203 60.4299 647.925 60.7072C647.659 60.9846 647.525 61.3579 647.525 61.8272ZM650.069 68.5472C650.539 68.4726 650.907 68.2859 651.173 67.9872C651.44 67.6779 651.573 67.3099 651.573 66.8832C651.573 66.4566 651.44 66.1259 651.173 65.8912C650.917 65.6459 650.549 65.4486 650.069 65.2992V68.5472ZM659.192 59.9552V58.2912H662.52V69.9552H660.68V59.9552H659.192ZM665.602 70.0672C665.271 70.0672 664.994 69.9552 664.77 69.7312C664.546 69.5072 664.434 69.2299 664.434 68.8992C664.434 68.5686 664.546 68.2912 664.77 68.0672C664.994 67.8432 665.271 67.7312 665.602 67.7312C665.922 67.7312 666.194 67.8432 666.418 68.0672C666.642 68.2912 666.754 68.5686 666.754 68.8992C666.754 69.2299 666.642 69.5072 666.418 69.7312C666.194 69.9552 665.922 70.0672 665.602 70.0672ZM668.053 61.1712C668.117 60.1792 668.496 59.4059 669.189 58.8512C669.893 58.2966 670.789 58.0192 671.877 58.0192C672.624 58.0192 673.269 58.1526 673.813 58.4192C674.357 58.6859 674.768 59.0486 675.045 59.5072C675.322 59.9659 675.461 60.4832 675.461 61.0592C675.461 61.7206 675.285 62.2859 674.933 62.7552C674.581 63.2246 674.16 63.5392 673.669 63.6992V63.7632C674.298 63.9552 674.789 64.3072 675.141 64.8192C675.493 65.3206 675.669 65.9659 675.669 66.7552C675.669 67.3846 675.525 67.9446 675.237 68.4352C674.949 68.9259 674.522 69.3152 673.957 69.6032C673.392 69.8806 672.714 70.0192 671.925 70.0192C670.773 70.0192 669.824 69.7259 669.077 69.1392C668.341 68.5419 667.946 67.6886 667.893 66.5792H669.653C669.696 67.1446 669.914 67.6086 670.309 67.9712C670.704 68.3232 671.237 68.4992 671.909 68.4992C672.56 68.4992 673.061 68.3232 673.413 67.9712C673.765 67.6086 673.941 67.1446 673.941 66.5792C673.941 65.8326 673.701 65.3046 673.221 64.9952C672.752 64.6752 672.026 64.5152 671.045 64.5152H670.629V63.0112H671.061C671.925 63.0006 672.581 62.8566 673.029 62.5792C673.488 62.3019 673.717 61.8646 673.717 61.2672C673.717 60.7552 673.552 60.3499 673.221 60.0512C672.89 59.7419 672.421 59.5872 671.813 59.5872C671.216 59.5872 670.752 59.7419 670.421 60.0512C670.09 60.3499 669.893 60.7232 669.829 61.1712H668.053ZM678.193 67.4752C679.217 66.5899 680.022 65.8646 680.609 65.2992C681.206 64.7232 681.702 64.1259 682.097 63.5072C682.492 62.8886 682.689 62.2699 682.689 61.6512C682.689 61.0112 682.534 60.5099 682.225 60.1472C681.926 59.7846 681.452 59.6032 680.801 59.6032C680.172 59.6032 679.681 59.8059 679.329 60.2112C678.988 60.6059 678.806 61.1392 678.785 61.8112H677.025C677.057 60.5952 677.42 59.6672 678.113 59.0272C678.817 58.3766 679.708 58.0512 680.785 58.0512C681.948 58.0512 682.854 58.3712 683.505 59.0112C684.166 59.6512 684.497 60.5046 684.497 61.5712C684.497 62.3392 684.3 63.0806 683.905 63.7952C683.521 64.4992 683.057 65.1339 682.513 65.6992C681.98 66.2539 681.297 66.8992 680.465 67.6352L679.745 68.2752H684.817V69.7952H677.041V68.4672L678.193 67.4752ZM685.779 59.9552V58.2912H689.107V69.9552H687.267V59.9552H685.779ZM693.453 67.7632L691.517 72.1792H690.333L691.469 67.7632H693.453ZM694.407 63.9712C694.407 62.1259 694.716 60.6859 695.335 59.6512C695.964 58.6059 697.042 58.0832 698.567 58.0832C700.092 58.0832 701.164 58.6059 701.783 59.6512C702.412 60.6859 702.727 62.1259 702.727 63.9712C702.727 65.8379 702.412 67.2992 701.783 68.3552C701.164 69.4006 700.092 69.9232 698.567 69.9232C697.042 69.9232 695.964 69.4006 695.335 68.3552C694.716 67.2992 694.407 65.8379 694.407 63.9712ZM700.935 63.9712C700.935 63.1072 700.876 62.3766 700.759 61.7792C700.652 61.1819 700.428 60.6966 700.087 60.3232C699.746 59.9392 699.239 59.7472 698.567 59.7472C697.895 59.7472 697.388 59.9392 697.047 60.3232C696.706 60.6966 696.476 61.1819 696.359 61.7792C696.252 62.3766 696.199 63.1072 696.199 63.9712C696.199 64.8672 696.252 65.6192 696.359 66.2272C696.466 66.8352 696.69 67.3259 697.031 67.6992C697.383 68.0726 697.895 68.2592 698.567 68.2592C699.239 68.2592 699.746 68.0726 700.087 67.6992C700.439 67.3259 700.668 66.8352 700.775 66.2272C700.882 65.6192 700.935 64.8672 700.935 63.9712ZM704.257 63.9712C704.257 62.1259 704.566 60.6859 705.185 59.6512C705.814 58.6059 706.892 58.0832 708.417 58.0832C709.942 58.0832 711.014 58.6059 711.633 59.6512C712.262 60.6859 712.577 62.1259 712.577 63.9712C712.577 65.8379 712.262 67.2992 711.633 68.3552C711.014 69.4006 709.942 69.9232 708.417 69.9232C706.892 69.9232 705.814 69.4006 705.185 68.3552C704.566 67.2992 704.257 65.8379 704.257 63.9712ZM710.785 63.9712C710.785 63.1072 710.726 62.3766 710.609 61.7792C710.502 61.1819 710.278 60.6966 709.937 60.3232C709.596 59.9392 709.089 59.7472 708.417 59.7472C707.745 59.7472 707.238 59.9392 706.897 60.3232C706.556 60.6966 706.326 61.1819 706.209 61.7792C706.102 62.3766 706.049 63.1072 706.049 63.9712C706.049 64.8672 706.102 65.6192 706.209 66.2272C706.316 66.8352 706.54 67.3259 706.881 67.6992C707.233 68.0726 707.745 68.2592 708.417 68.2592C709.089 68.2592 709.596 68.0726 709.937 67.6992C710.289 67.3259 710.518 66.8352 710.625 66.2272C710.732 65.6192 710.785 64.8672 710.785 63.9712Z" fill="#181819" fill-opacity="0.9"/>
<rect x="619" y="33.9552" width="8" height="8" rx="4" fill="#F0616A"/>
<rect x="50.25" y="138.787" width="0.5" height="294.843" stroke="#E6E7E9" stroke-width="0.5" stroke-dasharray="4 4"/>
<rect x="701.25" y="138.787" width="0.5" height="294.843" stroke="#E6E7E9" stroke-width="0.5" stroke-dasharray="4 4"/>
<rect x="143" y="138.537" width="1" height="295.343" fill="#F0F1F2"/>
<rect x="236" y="138.537" width="1" height="295.343" fill="#F0F1F2"/>
<rect x="329" y="138.537" width="1" height="295.343" fill="#F0F1F2"/>
<rect x="422" y="138.537" width="1" height="295.343" fill="#F0F1F2"/>
<rect x="515" y="138.537" width="1" height="295.343" fill="#F0F1F2"/>
<rect x="608" y="138.537" width="1" height="295.343" fill="#F0F1F2"/>
<path d="M51 363.197C51 363.197 79.0944 317.895 96.6534 317.895C114.212 317.895 125.626 332.995 143.624 332.995C161.622 332.995 172.157 310.344 189.716 310.344C207.275 310.344 218.688 348.096 236.686 348.096C254.684 348.096 265.22 374.522 282.779 374.522C300.338 374.522 311.751 299.019 329.749 299.019C347.747 299.019 358.283 344.321 375.842 344.321C393.401 344.321 404.814 321.67 422.812 321.67C440.81 321.67 452.223 366.972 469.782 366.972C487.341 366.972 498.316 291.469 515.875 291.469C533.434 291.469 545.286 325.445 562.845 325.445C580.404 325.445 591.378 280.143 608.937 280.143C626.496 280.143 638.349 321.67 655.908 321.67C673.467 321.67 702 225.403 702 225.403" stroke="#F0616A" stroke-width="2"/>
<path d="M51 315.164C51 315.164 79.0944 315.164 96.6534 315.164C114.212 315.164 125.626 257.254 143.624 257.254C161.622 257.254 172.157 344.119 189.716 344.119C207.275 344.119 218.688 286.209 236.686 286.209C254.684 286.209 265.22 358.597 282.779 358.597C300.338 358.597 311.751 300.687 329.749 300.687C347.747 300.687 358.283 387.552 375.842 387.552C393.401 387.552 404.814 213.821 422.812 213.821C440.81 213.821 452.223 387.552 469.782 387.552C487.341 387.552 498.316 329.642 515.875 329.642C533.434 329.642 545.286 286.209 562.845 286.209C580.404 286.209 591.378 373.075 608.937 373.075C626.496 373.075 638.349 300.687 655.908 300.687C673.467 300.687 702 313.716 702 313.716" stroke="#1A877F" stroke-width="2"/>
<path d="M560.045 437.093V445.433H558.677V439.721L556.133 445.433H555.185L552.629 439.721V445.433H551.261V437.093H552.737L555.665 443.633L558.581 437.093H560.045ZM561.087 442.097C561.087 441.433 561.223 440.845 561.495 440.333C561.775 439.821 562.151 439.425 562.623 439.145C563.103 438.857 563.631 438.713 564.207 438.713C564.727 438.713 565.179 438.817 565.563 439.025C565.955 439.225 566.267 439.477 566.499 439.781V438.821H567.879V445.433H566.499V444.449C566.267 444.761 565.951 445.021 565.551 445.229C565.151 445.437 564.695 445.541 564.183 445.541C563.615 445.541 563.095 445.397 562.623 445.109C562.151 444.813 561.775 444.405 561.495 443.885C561.223 443.357 561.087 442.761 561.087 442.097ZM566.499 442.121C566.499 441.665 566.403 441.269 566.211 440.933C566.027 440.597 565.783 440.341 565.479 440.165C565.175 439.989 564.847 439.901 564.495 439.901C564.143 439.901 563.815 439.989 563.511 440.165C563.207 440.333 562.959 440.585 562.767 440.921C562.583 441.249 562.491 441.641 562.491 442.097C562.491 442.553 562.583 442.953 562.767 443.297C562.959 443.641 563.207 443.905 563.511 444.089C563.823 444.265 564.151 444.353 564.495 444.353C564.847 444.353 565.175 444.265 565.479 444.089C565.783 443.913 566.027 443.657 566.211 443.321C566.403 442.977 566.499 442.577 566.499 442.121ZM570.071 437.945C569.823 437.945 569.615 437.861 569.447 437.693C569.279 437.525 569.195 437.317 569.195 437.069C569.195 436.821 569.279 436.613 569.447 436.445C569.615 436.277 569.823 436.193 570.071 436.193C570.311 436.193 570.515 436.277 570.683 436.445C570.851 436.613 570.935 436.821 570.935 437.069C570.935 437.317 570.851 437.525 570.683 437.693C570.515 437.861 570.311 437.945 570.071 437.945ZM570.743 438.821V445.433H569.375V438.821H570.743Z" fill="#181819" fill-opacity="0.42"/>
<path d="M649.568 437.093V443.105C649.568 443.849 649.34 444.437 648.884 444.869C648.436 445.301 647.844 445.517 647.108 445.517C646.372 445.517 645.776 445.301 645.32 444.869C644.872 444.437 644.648 443.849 644.648 443.105H646.028C646.036 443.473 646.128 443.765 646.304 443.981C646.488 444.197 646.756 444.305 647.108 444.305C647.46 444.305 647.728 444.197 647.912 443.981C648.096 443.757 648.188 443.465 648.188 443.105V437.093H649.568ZM657.482 438.821V445.433H656.114V444.653C655.898 444.925 655.614 445.141 655.262 445.301C654.918 445.453 654.55 445.529 654.158 445.529C653.638 445.529 653.17 445.421 652.754 445.205C652.346 444.989 652.022 444.669 651.782 444.245C651.55 443.821 651.434 443.309 651.434 442.709V438.821H652.79V442.505C652.79 443.097 652.938 443.553 653.234 443.873C653.53 444.185 653.934 444.341 654.446 444.341C654.958 444.341 655.362 444.185 655.658 443.873C655.962 443.553 656.114 443.097 656.114 442.505V438.821H657.482ZM662.323 438.713C662.843 438.713 663.307 438.821 663.715 439.037C664.131 439.253 664.455 439.573 664.687 439.997C664.919 440.421 665.035 440.933 665.035 441.533V445.433H663.679V441.737C663.679 441.145 663.531 440.693 663.235 440.381C662.939 440.061 662.535 439.901 662.023 439.901C661.511 439.901 661.103 440.061 660.799 440.381C660.503 440.693 660.355 441.145 660.355 441.737V445.433H658.987V438.821H660.355V439.577C660.579 439.305 660.863 439.093 661.207 438.941C661.559 438.789 661.931 438.713 662.323 438.713Z" fill="#181819" fill-opacity="0.42"/>
<path d="M464.175 443.729H460.683L460.083 445.433H458.655L461.643 437.081H463.227L466.215 445.433H464.775L464.175 443.729ZM463.791 442.613L462.435 438.737L461.067 442.613H463.791ZM468.582 439.805C468.814 439.485 469.13 439.225 469.53 439.025C469.938 438.817 470.39 438.713 470.886 438.713C471.47 438.713 471.998 438.853 472.47 439.133C472.942 439.413 473.314 439.813 473.586 440.333C473.858 440.845 473.994 441.433 473.994 442.097C473.994 442.761 473.858 443.357 473.586 443.885C473.314 444.405 472.938 444.813 472.458 445.109C471.986 445.397 471.462 445.541 470.886 445.541C470.374 445.541 469.918 445.441 469.518 445.241C469.126 445.041 468.814 444.785 468.582 444.473V445.433H467.214V436.553H468.582V439.805ZM472.602 442.097C472.602 441.641 472.506 441.249 472.314 440.921C472.13 440.585 471.882 440.333 471.57 440.165C471.266 439.989 470.938 439.901 470.586 439.901C470.242 439.901 469.914 439.989 469.602 440.165C469.298 440.341 469.05 440.597 468.858 440.933C468.674 441.269 468.582 441.665 468.582 442.121C468.582 442.577 468.674 442.977 468.858 443.321C469.05 443.657 469.298 443.913 469.602 444.089C469.914 444.265 470.242 444.353 470.586 444.353C470.938 444.353 471.266 444.265 471.57 444.089C471.882 443.905 472.13 443.641 472.314 443.297C472.506 442.953 472.602 442.553 472.602 442.097ZM476.415 439.781C476.615 439.445 476.879 439.185 477.207 439.001C477.543 438.809 477.939 438.713 478.395 438.713V440.129H478.047C477.511 440.129 477.103 440.265 476.823 440.537C476.551 440.809 476.415 441.281 476.415 441.953V445.433H475.047V438.821H476.415V439.781Z" fill="#181819" fill-opacity="0.42"/>
<path d="M374.824 437.093V445.433H373.456V439.721L370.912 445.433H369.964L367.408 439.721V445.433H366.04V437.093H367.516L370.444 443.633L373.36 437.093H374.824ZM375.866 442.097C375.866 441.433 376.002 440.845 376.274 440.333C376.554 439.821 376.93 439.425 377.402 439.145C377.882 438.857 378.41 438.713 378.986 438.713C379.506 438.713 379.958 438.817 380.342 439.025C380.734 439.225 381.046 439.477 381.278 439.781V438.821H382.658V445.433H381.278V444.449C381.046 444.761 380.73 445.021 380.33 445.229C379.93 445.437 379.474 445.541 378.962 445.541C378.394 445.541 377.874 445.397 377.402 445.109C376.93 444.813 376.554 444.405 376.274 443.885C376.002 443.357 375.866 442.761 375.866 442.097ZM381.278 442.121C381.278 441.665 381.182 441.269 380.99 440.933C380.806 440.597 380.562 440.341 380.258 440.165C379.954 439.989 379.626 439.901 379.274 439.901C378.922 439.901 378.594 439.989 378.29 440.165C377.986 440.333 377.738 440.585 377.546 440.921C377.362 441.249 377.27 441.641 377.27 442.097C377.27 442.553 377.362 442.953 377.546 443.297C377.738 443.641 377.986 443.905 378.29 444.089C378.602 444.265 378.93 444.353 379.274 444.353C379.626 444.353 379.954 444.265 380.258 444.089C380.562 443.913 380.806 443.657 380.99 443.321C381.182 442.977 381.278 442.577 381.278 442.121ZM385.523 439.781C385.723 439.445 385.987 439.185 386.315 439.001C386.651 438.809 387.047 438.713 387.503 438.713V440.129H387.155C386.619 440.129 386.211 440.265 385.931 440.537C385.659 440.809 385.523 441.281 385.523 441.953V445.433H384.155V438.821H385.523V439.781Z" fill="#181819" fill-opacity="0.42"/>
<path d="M278.86 437.093V438.209H275.32V440.669H278.08V441.785H275.32V445.433H273.952V437.093H278.86ZM285.888 441.965C285.888 442.213 285.872 442.437 285.84 442.637H280.788C280.828 443.165 281.024 443.589 281.376 443.909C281.728 444.229 282.16 444.389 282.672 444.389C283.408 444.389 283.928 444.081 284.232 443.465H285.708C285.508 444.073 285.144 444.573 284.616 444.965C284.096 445.349 283.448 445.541 282.672 445.541C282.04 445.541 281.472 445.401 280.968 445.121C280.472 444.833 280.08 444.433 279.792 443.921C279.512 443.401 279.372 442.801 279.372 442.121C279.372 441.441 279.508 440.845 279.78 440.333C280.06 439.813 280.448 439.413 280.944 439.133C281.448 438.853 282.024 438.713 282.672 438.713C283.296 438.713 283.852 438.849 284.34 439.121C284.828 439.393 285.208 439.777 285.48 440.273C285.752 440.761 285.888 441.325 285.888 441.965ZM284.46 441.533C284.452 441.029 284.272 440.625 283.92 440.321C283.568 440.017 283.132 439.865 282.612 439.865C282.14 439.865 281.736 440.017 281.4 440.321C281.064 440.617 280.864 441.021 280.8 441.533H284.46ZM289.49 444.209L291.362 438.821H292.814L290.294 445.433H288.662L286.154 438.821H287.618L289.49 444.209Z" fill="#181819" fill-opacity="0.42"/>
<path d="M184.898 437.093V443.105C184.898 443.849 184.67 444.437 184.214 444.869C183.766 445.301 183.174 445.517 182.438 445.517C181.702 445.517 181.106 445.301 180.65 444.869C180.202 444.437 179.978 443.849 179.978 443.105H181.358C181.366 443.473 181.458 443.765 181.634 443.981C181.818 444.197 182.086 444.305 182.438 444.305C182.79 444.305 183.058 444.197 183.242 443.981C183.426 443.757 183.518 443.465 183.518 443.105V437.093H184.898ZM186.368 442.097C186.368 441.433 186.504 440.845 186.776 440.333C187.056 439.821 187.432 439.425 187.904 439.145C188.384 438.857 188.912 438.713 189.488 438.713C190.008 438.713 190.46 438.817 190.844 439.025C191.236 439.225 191.548 439.477 191.78 439.781V438.821H193.16V445.433H191.78V444.449C191.548 444.761 191.232 445.021 190.832 445.229C190.432 445.437 189.976 445.541 189.464 445.541C188.896 445.541 188.376 445.397 187.904 445.109C187.432 444.813 187.056 444.405 186.776 443.885C186.504 443.357 186.368 442.761 186.368 442.097ZM191.78 442.121C191.78 441.665 191.684 441.269 191.492 440.933C191.308 440.597 191.064 440.341 190.76 440.165C190.456 439.989 190.128 439.901 189.776 439.901C189.424 439.901 189.096 439.989 188.792 440.165C188.488 440.333 188.24 440.585 188.048 440.921C187.864 441.249 187.772 441.641 187.772 442.097C187.772 442.553 187.864 442.953 188.048 443.297C188.24 443.641 188.488 443.905 188.792 444.089C189.104 444.265 189.432 444.353 189.776 444.353C190.128 444.353 190.456 444.265 190.76 444.089C191.064 443.913 191.308 443.657 191.492 443.321C191.684 442.977 191.78 442.577 191.78 442.121ZM197.993 438.713C198.513 438.713 198.977 438.821 199.385 439.037C199.801 439.253 200.125 439.573 200.357 439.997C200.589 440.421 200.705 440.933 200.705 441.533V445.433H199.349V441.737C199.349 441.145 199.201 440.693 198.905 440.381C198.609 440.061 198.205 439.901 197.693 439.901C197.181 439.901 196.773 440.061 196.469 440.381C196.173 440.693 196.025 441.145 196.025 441.737V445.433H194.657V438.821H196.025V439.577C196.249 439.305 196.533 439.093 196.877 438.941C197.229 438.789 197.601 438.713 197.993 438.713Z" fill="#181819" fill-opacity="0.42"/>
<path d="M90.624 437.093C91.512 437.093 92.288 437.265 92.952 437.609C93.624 437.945 94.14 438.433 94.5 439.073C94.868 439.705 95.052 440.445 95.052 441.293C95.052 442.141 94.868 442.877 94.5 443.501C94.14 444.125 93.624 444.605 92.952 444.941C92.288 445.269 91.512 445.433 90.624 445.433H87.9V437.093H90.624ZM90.624 444.317C91.6 444.317 92.348 444.053 92.868 443.525C93.388 442.997 93.648 442.253 93.648 441.293C93.648 440.325 93.388 439.569 92.868 439.025C92.348 438.481 91.6 438.209 90.624 438.209H89.268V444.317H90.624ZM102.168 441.965C102.168 442.213 102.152 442.437 102.12 442.637H97.0678C97.1078 443.165 97.3038 443.589 97.6558 443.909C98.0078 444.229 98.4398 444.389 98.9518 444.389C99.6878 444.389 100.208 444.081 100.512 443.465H101.988C101.788 444.073 101.424 444.573 100.896 444.965C100.376 445.349 99.7278 445.541 98.9518 445.541C98.3198 445.541 97.7518 445.401 97.2478 445.121C96.7518 444.833 96.3598 444.433 96.0718 443.921C95.7918 443.401 95.6518 442.801 95.6518 442.121C95.6518 441.441 95.7878 440.845 96.0598 440.333C96.3398 439.813 96.7278 439.413 97.2238 439.133C97.7278 438.853 98.3038 438.713 98.9518 438.713C99.5758 438.713 100.132 438.849 100.62 439.121C101.108 439.393 101.488 439.777 101.76 440.273C102.032 440.761 102.168 441.325 102.168 441.965ZM100.74 441.533C100.732 441.029 100.552 440.625 100.2 440.321C99.8478 440.017 99.4118 439.865 98.8918 439.865C98.4198 439.865 98.0158 440.017 97.6798 440.321C97.3438 440.617 97.1438 441.021 97.0798 441.533H100.74ZM104.426 444.317H107.426V445.433H102.842V444.317L105.854 439.937H102.842V438.821H107.426V439.937L104.426 444.317Z" fill="#181819" fill-opacity="0.42"/>
</svg>
