<svg width="54" height="54" viewBox="0 0 54 54" fill="none" xmlns="http://www.w3.org/2000/svg">
<path d="M15.8 0.333374H38.2C46.7333 0.333374 53.6667 7.26671 53.6667 15.8V38.2C53.6667 42.3021 52.0372 46.2361 49.1366 49.1366C46.236 52.0372 42.302 53.6667 38.2 53.6667H15.8C7.26668 53.6667 0.333344 46.7334 0.333344 38.2V15.8C0.333344 11.698 1.96286 7.76402 4.86343 4.86346C7.76399 1.96289 11.698 0.333374 15.8 0.333374ZM15.2667 5.66671C12.7206 5.66671 10.2788 6.67813 8.47845 8.47848C6.6781 10.2788 5.66668 12.7206 5.66668 15.2667V38.7334C5.66668 44.04 9.96001 48.3334 15.2667 48.3334H38.7333C41.2794 48.3334 43.7212 47.3219 45.5216 45.5216C47.3219 43.7212 48.3333 41.2794 48.3333 38.7334V15.2667C48.3333 9.96004 44.04 5.66671 38.7333 5.66671H15.2667ZM41 9.66671C41.8841 9.66671 42.7319 10.0179 43.357 10.643C43.9822 11.2681 44.3333 12.116 44.3333 13C44.3333 13.8841 43.9822 14.7319 43.357 15.3571C42.7319 15.9822 41.8841 16.3334 41 16.3334C40.116 16.3334 39.2681 15.9822 38.643 15.3571C38.0179 14.7319 37.6667 13.8841 37.6667 13C37.6667 12.116 38.0179 11.2681 38.643 10.643C39.2681 10.0179 40.116 9.66671 41 9.66671ZM27 13.6667C30.5362 13.6667 33.9276 15.0715 36.4281 17.5719C38.9286 20.0724 40.3333 23.4638 40.3333 27C40.3333 30.5363 38.9286 33.9276 36.4281 36.4281C33.9276 38.9286 30.5362 40.3334 27 40.3334C23.4638 40.3334 20.0724 38.9286 17.5719 36.4281C15.0714 33.9276 13.6667 30.5363 13.6667 27C13.6667 23.4638 15.0714 20.0724 17.5719 17.5719C20.0724 15.0715 23.4638 13.6667 27 13.6667ZM27 19C24.8783 19 22.8434 19.8429 21.3432 21.3432C19.8429 22.8435 19 24.8783 19 27C19 29.1218 19.8429 31.1566 21.3432 32.6569C22.8434 34.1572 24.8783 35 27 35C29.1217 35 31.1566 34.1572 32.6569 32.6569C34.1572 31.1566 35 29.1218 35 27C35 24.8783 34.1572 22.8435 32.6569 21.3432C31.1566 19.8429 29.1217 19 27 19Z" fill="white"/>
</svg>
