<svg width="20" height="24" viewBox="0 0 20 24" fill="none" xmlns="http://www.w3.org/2000/svg">
<path fill-rule="evenodd" clip-rule="evenodd" d="M4.72721 16.5384L3.61697 16.9411C2.84369 14.8157 1.59809 10.9637 3.38225 9.17376C4.77857 7.77504 7.17569 8.02224 8.40929 9.52224L7.49873 10.272C6.71393 9.31584 5.11745 9.10704 4.22033 10.0066C2.93057 11.2987 4.15745 14.9717 4.72721 16.5384ZM12.5575 5.1672C12.172 5.90448 11.5288 6.40896 10.5367 6.67872C10.277 5.68704 10.3922 4.87728 10.8386 4.1736C11.2864 3.46848 12.0621 2.83008 13.1234 2.19888C13.1075 3.43632 12.9439 4.42848 12.5575 5.1672ZM19.732 11.6923C19.732 8.35104 16.8904 5.75904 13.5698 6.08736C14.6551 4.34304 14.4818 1.96944 14.3925 0C12.7341 0.86016 10.7531 1.8264 9.72065 3.43248C9.42209 2.53056 9.05153 1.65408 8.60561 0.81168L7.07825 1.53936C7.97009 3.18432 8.81249 5.00688 9.16481 7.03824C5.35361 4.60512 0.268494 7.01472 0.268494 11.6933C0.279054 14.5574 1.66001 19.0565 3.25601 21.4258C4.28465 22.9526 5.58209 24 7.15457 24C8.05649 24 9.16913 23.5195 10.001 23.243C10.8496 23.5248 11.9387 24 12.856 23.9962C14.4218 23.989 15.7202 22.9387 16.7517 21.4109C18.3587 19.0301 19.733 14.5742 19.732 11.6923Z" fill="white"/>
</svg>
