<svg width="19" height="22" viewBox="0 0 19 22" fill="none" xmlns="http://www.w3.org/2000/svg">
<path d="M7.94 11H17.69" stroke="#F2F2F2" stroke-width="2" stroke-linecap="round" stroke-linejoin="round"/>
<path d="M13.9475 17.75V20H1.94751V2H13.9475V4.25H15.4475V1.25C15.4475 1.05109 15.3685 0.860322 15.2278 0.71967C15.0872 0.579018 14.8964 0.5 14.6975 0.5H1.19751C0.998598 0.5 0.807832 0.579018 0.66718 0.71967C0.526528 0.860322 0.44751 1.05109 0.44751 1.25V20.75C0.44751 20.9489 0.526528 21.1397 0.66718 21.2803C0.807832 21.421 0.998598 21.5 1.19751 21.5H14.6975C14.8964 21.5 15.0872 21.421 15.2278 21.2803C15.3685 21.1397 15.4475 20.9489 15.4475 20.75V17.75H13.9475Z" fill="#F2F2F2"/>
<path d="M17.69 11L14.69 14" stroke="#F2F2F2" stroke-width="2" stroke-linecap="round" stroke-linejoin="round"/>
<path d="M17.69 11L14.69 8" stroke="#F2F2F2" stroke-width="2" stroke-linecap="round" stroke-linejoin="round"/>
<path d="M14.69 5.0675V3.5675" stroke="#F2F2F2" stroke-width="2" stroke-linecap="round" stroke-linejoin="round"/>
<path d="M14.69 18.5V17" stroke="#F2F2F2" stroke-width="2" stroke-linecap="round" stroke-linejoin="round"/>
</svg>
