<svg width="15" height="20" viewBox="0 0 15 20" fill="none" xmlns="http://www.w3.org/2000/svg">
<path d="M7.5 14.875C7.96413 14.875 8.40925 14.6906 8.73744 14.3624C9.06562 14.0342 9.25 13.5891 9.25 13.125C9.25 12.1538 8.4625 11.375 7.5 11.375C7.03587 11.375 6.59075 11.5594 6.26256 11.8876C5.93437 12.2158 5.75 12.6609 5.75 13.125C5.75 13.5891 5.93437 14.0342 6.26256 14.3624C6.59075 14.6906 7.03587 14.875 7.5 14.875ZM12.75 7C13.2141 7 13.6592 7.18438 13.9874 7.51256C14.3156 7.84075 14.5 8.28587 14.5 8.75V17.5C14.5 17.9641 14.3156 18.4093 13.9874 18.7374C13.6592 19.0656 13.2141 19.25 12.75 19.25H2.25C1.78587 19.25 1.34075 19.0656 1.01256 18.7374C0.684374 18.4093 0.5 17.9641 0.5 17.5V8.75C0.5 7.77875 1.2875 7 2.25 7H3.125V5.25C3.125 4.08968 3.58594 2.97688 4.40641 2.15641C5.22688 1.33594 6.33968 0.875 7.5 0.875C8.07453 0.875 8.64344 0.988163 9.17424 1.20803C9.70504 1.42789 10.1873 1.75015 10.5936 2.15641C10.9998 2.56266 11.3221 3.04496 11.542 3.57576C11.7618 4.10656 11.875 4.67547 11.875 5.25V7H12.75ZM7.5 2.625C6.80381 2.625 6.13613 2.90156 5.64384 3.39385C5.15156 3.88613 4.875 4.55381 4.875 5.25V7H10.125V5.25C10.125 4.55381 9.84844 3.88613 9.35615 3.39385C8.86387 2.90156 8.19619 2.625 7.5 2.625Z" fill="#888888"/>
</svg>
