<svg width="24" height="24" viewBox="0 0 24 24" fill="none" xmlns="http://www.w3.org/2000/svg">
<g clip-path="url(#clip0_1_440)">
<path d="M20.5406 24H3.54373C3.24841 24 3.01404 23.761 3.01404 23.4703V22.8469C3.01404 22.5516 3.2531 22.3172 3.54373 22.3172H20.5406C20.8359 22.3172 21.0703 22.5563 21.0703 22.8469V23.4703C21.0703 23.761 20.8312 24 20.5406 24Z" fill="white"/>
<path d="M19.9781 4.75781V2.25937C19.9781 2.01093 19.7766 1.81406 19.5328 1.81406H16.5937C16.3453 1.81406 16.1484 2.01562 16.1484 2.25937V2.69062C16.1484 2.85937 16.2469 3.01874 16.3969 3.08906C17.4656 3.60468 18.4172 4.23281 19.2047 5.0625C19.4859 5.35781 19.9781 5.16562 19.9781 4.75781Z" fill="white"/>
<path d="M20.1 1.27501H16.1015C15.8765 1.27501 15.689 1.09219 15.689 0.862506V0.403131C15.689 0.178131 15.8718 -0.0093689 16.1015 -0.0093689H20.1C20.325 -0.0093689 20.5125 0.173444 20.5125 0.403131V0.862506C20.5125 1.09219 20.3297 1.27501 20.1 1.27501Z" fill="white"/>
<path d="M2.92968 12.8531C3.32811 12.8531 3.66561 12.5484 3.7078 12.1547C4.15311 7.94063 7.71092 4.65469 12.0469 4.65469C16.3781 4.65469 19.9406 7.94063 20.3859 12.1547C20.4281 12.5531 20.7609 12.8531 21.164 12.8531C21.6281 12.8531 21.9984 12.45 21.9469 11.9859C21.4078 6.98438 17.1844 3.08438 12.0422 3.08438C6.89999 3.08438 2.67186 6.98438 2.14218 11.9859C2.0953 12.45 2.46093 12.8531 2.92968 12.8531Z" fill="white"/>
<path d="M12 5.40938C7.75311 5.43751 4.35468 8.96251 4.35468 13.2094V20.2641C4.35468 20.6672 4.6828 20.9953 5.08592 20.9953H8.24999C8.65311 20.9953 8.98124 20.6672 8.98124 20.2641V18.5625C8.98124 16.8844 10.2984 15.4641 11.9719 15.4219C13.7062 15.375 15.1265 16.7719 15.1265 18.4922V20.2641C15.1265 20.6672 15.4547 20.9953 15.8578 20.9953H19.0172C19.4203 20.9953 19.7484 20.6672 19.7484 20.2641V13.1109C19.7531 8.84063 16.2797 5.38126 12 5.40938ZM12.0515 12.0188C11.2031 12.0188 10.514 11.3297 10.514 10.4813C10.514 9.63282 11.2031 8.94376 12.0515 8.94376C12.9 8.94376 13.589 9.63282 13.589 10.4813C13.589 11.3344 12.9 12.0188 12.0515 12.0188Z" fill="white"/>
</g>
<defs>
<clipPath id="clip0_1_440">
<rect width="24" height="24" fill="white"/>
</clipPath>
</defs>
</svg>
