<svg width="24" height="24" viewBox="0 0 24 24" fill="none" xmlns="http://www.w3.org/2000/svg">
<path d="M11.94 12H21.69" stroke="#F2F2F2" stroke-width="2" stroke-linecap="round" stroke-linejoin="round"/>
<path d="M17.9475 18.75V21H5.94751V3H17.9475V5.25H19.4475V2.25C19.4475 2.05109 19.3685 1.86032 19.2278 1.71967C19.0872 1.57902 18.8964 1.5 18.6975 1.5H5.19751C4.9986 1.5 4.80783 1.57902 4.66718 1.71967C4.52653 1.86032 4.44751 2.05109 4.44751 2.25V21.75C4.44751 21.9489 4.52653 22.1397 4.66718 22.2803C4.80783 22.421 4.9986 22.5 5.19751 22.5H18.6975C18.8964 22.5 19.0872 22.421 19.2278 22.2803C19.3685 22.1397 19.4475 21.9489 19.4475 21.75V18.75H17.9475Z" fill="#F2F2F2"/>
<path d="M21.69 12L18.69 15" stroke="#F2F2F2" stroke-width="2" stroke-linecap="round" stroke-linejoin="round"/>
<path d="M21.69 12L18.69 9" stroke="#F2F2F2" stroke-width="2" stroke-linecap="round" stroke-linejoin="round"/>
<path d="M18.69 6.0675V4.5675" stroke="#F2F2F2" stroke-width="2" stroke-linecap="round" stroke-linejoin="round"/>
<path d="M18.69 19.5V18" stroke="#F2F2F2" stroke-width="2" stroke-linecap="round" stroke-linejoin="round"/>
</svg>
