<svg width="9" height="13" viewBox="0 0 9 13" fill="none" xmlns="http://www.w3.org/2000/svg">
<path d="M0.928 3.216C0.992 2.224 1.37067 1.45067 2.064 0.896C2.768 0.341333 3.664 0.0639992 4.752 0.0639992C5.49867 0.0639992 6.144 0.197333 6.688 0.464C7.232 0.730666 7.64267 1.09333 7.92 1.552C8.19733 2.01067 8.336 2.528 8.336 3.104C8.336 3.76533 8.16 4.33067 7.808 4.8C7.456 5.26933 7.03467 5.584 6.544 5.744V5.808C7.17333 6 7.664 6.352 8.016 6.864C8.368 7.36533 8.544 8.01067 8.544 8.8C8.544 9.42933 8.4 9.98933 8.112 10.48C7.824 10.9707 7.39733 11.36 6.832 11.648C6.26667 11.9253 5.58933 12.064 4.8 12.064C3.648 12.064 2.69867 11.7707 1.952 11.184C1.216 10.5867 0.821333 9.73333 0.768 8.624H2.528C2.57067 9.18933 2.78933 9.65333 3.184 10.016C3.57867 10.368 4.112 10.544 4.784 10.544C5.43467 10.544 5.936 10.368 6.288 10.016C6.64 9.65333 6.816 9.18933 6.816 8.624C6.816 7.87733 6.576 7.34933 6.096 7.04C5.62667 6.72 4.90133 6.56 3.92 6.56H3.504V5.056H3.936C4.8 5.04533 5.456 4.90133 5.904 4.624C6.36267 4.34667 6.592 3.90933 6.592 3.312C6.592 2.8 6.42667 2.39467 6.096 2.096C5.76533 1.78667 5.296 1.632 4.688 1.632C4.09067 1.632 3.62667 1.78667 3.296 2.096C2.96533 2.39467 2.768 2.768 2.704 3.216H0.928Z" fill="white"/>
</svg>
