<svg width="15" height="15" viewBox="0 0 15 15" fill="none" xmlns="http://www.w3.org/2000/svg">
<path d="M7.5 0.5C8.42826 0.5 9.3185 0.868749 9.97487 1.52513C10.6312 2.1815 11 3.07174 11 4C11 4.92826 10.6312 5.8185 9.97487 6.47487C9.3185 7.13125 8.42826 7.5 7.5 7.5C6.57174 7.5 5.6815 7.13125 5.02513 6.47487C4.36875 5.8185 4 4.92826 4 4C4 3.07174 4.36875 2.1815 5.02513 1.52513C5.6815 0.868749 6.57174 0.5 7.5 0.5ZM7.5 9.25C11.3675 9.25 14.5 10.8162 14.5 12.75V14.5H0.5V12.75C0.5 10.8162 3.6325 9.25 7.5 9.25Z" fill="#888888"/>
</svg>
