<svg width="24" height="15" viewBox="0 0 24 15" fill="none" xmlns="http://www.w3.org/2000/svg">
<path d="M21.8859 3.29686H7.50469C7.47188 3.29686 7.43907 3.30624 7.40625 3.30624L7.04063 1.47811C6.975 0.9953 6.64219 0.704675 6.01875 0.6203H0.773441C-0.421871 0.624988 -0.454684 3.56874 2.27813 3.18905L4.92188 3.16561L5.39063 5.36405V5.36874L6.81563 12.4094C6.81563 13.5484 7.76719 14.4812 8.92969 14.4812H20.4609C21.6234 14.4812 22.575 13.5484 22.575 12.4094L24 5.36874C24 4.22968 23.0484 3.29686 21.8859 3.29686ZM9.52969 12.4141L9.48282 12.4187C9.09375 12.4656 8.72813 12.1984 8.67657 11.8281L7.86094 6.2828C7.80469 5.90311 8.09063 5.55155 8.49375 5.50468L8.54063 5.49999C8.92969 5.45311 9.29532 5.7203 9.34688 6.09061L10.1625 11.6359C10.2188 12.0156 9.93282 12.3672 9.52969 12.4141ZM13.2141 12.4328L13.1625 12.4375C12.7688 12.4656 12.4172 12.1797 12.3891 11.8047L11.925 6.23124C11.8922 5.85155 12.1969 5.51405 12.6 5.49061L12.6516 5.48593C13.0453 5.4578 13.3969 5.74374 13.425 6.11874L13.8891 11.6922C13.9219 12.0766 13.6172 12.4094 13.2141 12.4328ZM17.4844 11.7672C17.4797 12.1469 17.1469 12.4516 16.7484 12.4469H16.6969C16.2984 12.4422 15.975 12.1281 15.9797 11.7484L16.0734 6.16093C16.0781 5.78124 16.4109 5.47655 16.8094 5.48124H16.8609C17.2594 5.48593 17.5828 5.79999 17.5781 6.17968L17.4844 11.7672ZM21.7359 6.31093L20.7844 11.8375C20.7234 12.2031 20.3531 12.4609 19.9641 12.4094L19.9172 12.4047C19.5141 12.3484 19.2375 11.9922 19.3031 11.6125L20.25 6.08593C20.3109 5.7203 20.6813 5.46249 21.0703 5.51405L21.1172 5.51874C21.525 5.57499 21.8016 5.93124 21.7359 6.31093Z" fill="white"/>
</svg>
