<svg width="22" height="22" viewBox="0 0 22 22" fill="none" xmlns="http://www.w3.org/2000/svg">
<path d="M10.8754 16.0273L9.03724 14.1891L18.3354 4.89024L20.1743 6.72844L21.4 5.5028L16.4972 0.599976L15.2715 1.82562L17.1097 3.6646L7.8116 12.9635L5.97262 11.1245C5.6341 10.786 5.08576 10.786 4.74698 11.1245L2.65476 13.2167C1.2856 14.5851 0.601798 16.382 0.599978 18.1778C0.599198 19.0935 0.779378 20.004 1.13402 20.8667C1.99332 21.2203 2.9054 21.4008 3.82216 21.4C5.61642 21.3992 7.41328 20.7136 8.78348 19.3452L10.8757 17.253C11.2132 16.9152 11.215 16.3659 10.8754 16.0273Z" fill="white"/>
</svg>
