<svg width="18" height="22" viewBox="0 0 18 22" fill="none" xmlns="http://www.w3.org/2000/svg">
<path d="M0 19.3572C0 20.4219 0.863839 21.2857 1.92857 21.2857H16.0714C17.1362 21.2857 18 20.4219 18 19.3572V8.42858H0V19.3572ZM12.8571 11.4822C12.8571 11.217 13.0741 11 13.3393 11H14.9464C15.2116 11 15.4286 11.217 15.4286 11.4822V13.0893C15.4286 13.3545 15.2116 13.5714 14.9464 13.5714H13.3393C13.0741 13.5714 12.8571 13.3545 12.8571 13.0893V11.4822ZM12.8571 16.625C12.8571 16.3598 13.0741 16.1429 13.3393 16.1429H14.9464C15.2116 16.1429 15.4286 16.3598 15.4286 16.625V18.2322C15.4286 18.4973 15.2116 18.7143 14.9464 18.7143H13.3393C13.0741 18.7143 12.8571 18.4973 12.8571 18.2322V16.625ZM7.71429 11.4822C7.71429 11.217 7.93125 11 8.19643 11H9.80357C10.0687 11 10.2857 11.217 10.2857 11.4822V13.0893C10.2857 13.3545 10.0687 13.5714 9.80357 13.5714H8.19643C7.93125 13.5714 7.71429 13.3545 7.71429 13.0893V11.4822ZM7.71429 16.625C7.71429 16.3598 7.93125 16.1429 8.19643 16.1429H9.80357C10.0687 16.1429 10.2857 16.3598 10.2857 16.625V18.2322C10.2857 18.4973 10.0687 18.7143 9.80357 18.7143H8.19643C7.93125 18.7143 7.71429 18.4973 7.71429 18.2322V16.625ZM2.57143 11.4822C2.57143 11.217 2.78839 11 3.05357 11H4.66071C4.92589 11 5.14286 11.217 5.14286 11.4822V13.0893C5.14286 13.3545 4.92589 13.5714 4.66071 13.5714H3.05357C2.78839 13.5714 2.57143 13.3545 2.57143 13.0893V11.4822ZM2.57143 16.625C2.57143 16.3598 2.78839 16.1429 3.05357 16.1429H4.66071C4.92589 16.1429 5.14286 16.3598 5.14286 16.625V18.2322C5.14286 18.4973 4.92589 18.7143 4.66071 18.7143H3.05357C2.78839 18.7143 2.57143 18.4973 2.57143 18.2322V16.625ZM16.0714 3.28572H14.1429V1.35715C14.1429 1.00358 13.8536 0.714294 13.5 0.714294H12.2143C11.8607 0.714294 11.5714 1.00358 11.5714 1.35715V3.28572H6.42857V1.35715C6.42857 1.00358 6.13929 0.714294 5.78571 0.714294H4.5C4.14643 0.714294 3.85714 1.00358 3.85714 1.35715V3.28572H1.92857C0.863839 3.28572 0 4.14956 0 5.21429V7.14287H18V5.21429C18 4.14956 17.1362 3.28572 16.0714 3.28572Z" fill="white"/>
</svg>
