<svg width="24" height="24" viewBox="0 0 24 24" fill="none" xmlns="http://www.w3.org/2000/svg">
<g clip-path="url(#clip0_1_407)">
<path d="M11.3672 21.375C12.5141 21.375 13.4438 20.4663 13.4438 19.3453C13.4438 18.2243 12.5141 17.3156 11.3672 17.3156C10.2204 17.3156 9.29065 18.2243 9.29065 19.3453C9.29065 20.4663 10.2204 21.375 11.3672 21.375Z" fill="white"/>
<path d="M17.8078 21.375C18.9547 21.375 19.8844 20.4663 19.8844 19.3453C19.8844 18.2243 18.9547 17.3156 17.8078 17.3156C16.661 17.3156 15.7313 18.2243 15.7313 19.3453C15.7313 20.4663 16.661 21.375 17.8078 21.375Z" fill="white"/>
<path d="M21.8859 5.29686H7.50469C7.47188 5.29686 7.43907 5.30624 7.40625 5.30624L7.04063 3.47811C6.975 2.9953 6.64219 2.70468 6.01875 2.6203H0.773441C-0.421871 2.62499 -0.454684 5.56874 2.27813 5.18905L4.92188 5.16561L5.39063 7.36405V7.36874L6.81563 14.4094C6.81563 15.5484 7.76719 16.4812 8.92969 16.4812H20.4609C21.6234 16.4812 22.575 15.5484 22.575 14.4094L24 7.36874C24 6.22968 23.0484 5.29686 21.8859 5.29686ZM9.52969 14.4141L9.48282 14.4187C9.09375 14.4656 8.72813 14.1984 8.67657 13.8281L7.86094 8.2828C7.80469 7.90311 8.09063 7.55155 8.49375 7.50468L8.54063 7.49999C8.92969 7.45311 9.29532 7.7203 9.34688 8.09061L10.1625 13.6359C10.2188 14.0156 9.93282 14.3672 9.52969 14.4141ZM13.2141 14.4328L13.1625 14.4375C12.7688 14.4656 12.4172 14.1797 12.3891 13.8047L11.925 8.23124C11.8922 7.85155 12.1969 7.51405 12.6 7.49061L12.6516 7.48593C13.0453 7.4578 13.3969 7.74374 13.425 8.11874L13.8891 13.6922C13.9219 14.0766 13.6172 14.4094 13.2141 14.4328ZM17.4844 13.7672C17.4797 14.1469 17.1469 14.4516 16.7484 14.4469H16.6969C16.2984 14.4422 15.975 14.1281 15.9797 13.7484L16.0734 8.16093C16.0781 7.78124 16.4109 7.47655 16.8094 7.48124H16.8609C17.2594 7.48593 17.5828 7.79999 17.5781 8.17968L17.4844 13.7672ZM21.7359 8.31093L20.7844 13.8375C20.7234 14.2031 20.3531 14.4609 19.9641 14.4094L19.9172 14.4047C19.5141 14.3484 19.2375 13.9922 19.3031 13.6125L20.25 8.08593C20.3109 7.7203 20.6813 7.46249 21.0703 7.51405L21.1172 7.51874C21.525 7.57499 21.8016 7.93124 21.7359 8.31093Z" fill="white"/>
</g>
<defs>
<clipPath id="clip0_1_407">
<rect width="24" height="24" fill="white"/>
</clipPath>
</defs>
</svg>
