<svg width="30" height="30" viewBox="0 0 30 30" fill="none" xmlns="http://www.w3.org/2000/svg">
<path d="M15.06 0C6.87001 0 0.195012 6.675 0.195012 14.865C0.195012 17.49 0.885012 20.04 2.17501 22.29L0.0750122 30L7.95001 27.93C10.125 29.115 12.57 29.745 15.06 29.745C23.25 29.745 29.925 23.07 29.925 14.88C29.925 10.905 28.38 7.17 25.575 4.365C22.77 1.545 19.035 0 15.06 0ZM15.075 2.505C18.375 2.505 21.465 3.795 23.805 6.135C26.13 8.475 27.42 11.58 27.42 14.88C27.42 21.69 21.87 27.225 15.06 27.225C12.84 27.225 10.665 26.64 8.77501 25.5L8.32501 25.245L3.64501 26.475L4.89001 21.915L4.59001 21.435C3.36001 19.5 2.70001 17.205 2.70001 14.865C2.71501 8.055 8.25001 2.505 15.075 2.505ZM9.79501 7.995C9.55501 7.995 9.15001 8.085 8.80501 8.46C8.47501 8.835 7.50001 9.75 7.50001 11.565C7.50001 13.395 8.83501 15.15 9.00001 15.405C9.21001 15.66 11.64 19.41 15.375 21C16.26 21.405 16.95 21.63 17.49 21.795C18.375 22.08 19.185 22.035 19.83 21.945C20.55 21.84 22.02 21.045 22.335 20.175C22.65 19.305 22.65 18.57 22.56 18.405C22.455 18.255 22.215 18.165 21.84 18C21.465 17.79 19.635 16.89 19.305 16.77C18.96 16.65 18.75 16.59 18.465 16.95C18.225 17.325 17.505 18.165 17.295 18.405C17.07 18.66 16.86 18.69 16.5 18.51C16.11 18.315 14.91 17.925 13.5 16.665C12.39 15.675 11.655 14.46 11.43 14.085C11.25 13.725 11.415 13.5 11.595 13.335C11.76 13.17 12 12.9 12.15 12.675C12.345 12.465 12.405 12.3 12.525 12.06C12.645 11.805 12.585 11.595 12.495 11.415C12.405 11.25 11.655 9.39 11.34 8.655C11.04 7.935 10.74 8.025 10.5 8.01C10.29 8.01 10.05 7.995 9.79501 7.995Z" fill="#00A69A"/>
</svg>
