<svg width="54" height="54" viewBox="0 0 54 54" fill="none" xmlns="http://www.w3.org/2000/svg">
<path d="M27.1067 0.333374C12.5467 0.333374 0.680009 12.2 0.680009 26.76C0.680009 31.4267 1.90667 35.96 4.20001 39.96L0.466675 53.6667L14.4667 49.9867C18.3333 52.0934 22.68 53.2134 27.1067 53.2134C41.6667 53.2134 53.5333 41.3467 53.5333 26.7867C53.5333 19.72 50.7867 13.08 45.8 8.09337C40.8133 3.08004 34.1733 0.333374 27.1067 0.333374ZM27.1333 4.78671C33 4.78671 38.4933 7.08004 42.6533 11.24C46.7867 15.4 49.08 20.92 49.08 26.7867C49.08 38.8934 39.2133 48.7334 27.1067 48.7334C23.16 48.7334 19.2933 47.6934 15.9333 45.6667L15.1333 45.2134L6.81334 47.4L9.02668 39.2934L8.49334 38.44C6.30667 35 5.13334 30.92 5.13334 26.76C5.16001 14.6534 15 4.78671 27.1333 4.78671ZM17.7467 14.5467C17.32 14.5467 16.6 14.7067 15.9867 15.3734C15.4 16.04 13.6667 17.6667 13.6667 20.8934C13.6667 24.1467 16.04 27.2667 16.3333 27.72C16.7067 28.1734 21.0267 34.84 27.6667 37.6667C29.24 38.3867 30.4667 38.7867 31.4267 39.08C33 39.5867 34.44 39.5067 35.5867 39.3467C36.8667 39.16 39.48 37.7467 40.04 36.2C40.6 34.6534 40.6 33.3467 40.44 33.0534C40.2533 32.7867 39.8267 32.6267 39.16 32.3334C38.4933 31.96 35.24 30.36 34.6533 30.1467C34.04 29.9334 33.6667 29.8267 33.16 30.4667C32.7333 31.1334 31.4533 32.6267 31.08 33.0534C30.68 33.5067 30.3067 33.56 29.6667 33.24C28.9733 32.8934 26.84 32.2 24.3333 29.96C22.36 28.2 21.0533 26.04 20.6533 25.3734C20.3333 24.7334 20.6267 24.3334 20.9467 24.04C21.24 23.7467 21.6667 23.2667 21.9333 22.8667C22.28 22.4934 22.3867 22.2 22.6 21.7734C22.8133 21.32 22.7067 20.9467 22.5467 20.6267C22.3867 20.3334 21.0533 17.0267 20.4933 15.72C19.96 14.44 19.4267 14.6 19 14.5734C18.6267 14.5734 18.2 14.5467 17.7467 14.5467Z" fill="white"/>
</svg>
